<?xml version="1.0" encoding="utf-8" standalone="no"?>
<!DOCTYPE svg PUBLIC "-//W3C//DTD SVG 1.1//EN"
  "http://www.w3.org/Graphics/SVG/1.1/DTD/svg11.dtd">
<svg xmlns:xlink="http://www.w3.org/1999/xlink" width="885.180313pt" height="232.874687pt" viewBox="0 0 885.180313 232.874687" xmlns="http://www.w3.org/2000/svg" version="1.1">
 <metadata>
  <rdf:RDF xmlns:dc="http://purl.org/dc/elements/1.1/" xmlns:cc="http://creativecommons.org/ns#" xmlns:rdf="http://www.w3.org/1999/02/22-rdf-syntax-ns#">
   <cc:Work>
    <dc:type rdf:resource="http://purl.org/dc/dcmitype/StillImage"/>
    <dc:date>2026-10-02T19:37:04.773947</dc:date>
    <dc:format>image/svg+xml</dc:format>
    <dc:creator>
     <cc:Agent>
      <dc:title>Matplotlib v3.10.3, https://matplotlib.org/</dc:title>
     </cc:Agent>
    </dc:creator>
   </cc:Work>
  </rdf:RDF>
 </metadata>
 <defs>
  <style type="text/css">*{stroke-linejoin: round; stroke-linecap: butt}</style>
 </defs>
 <g id="figure_1">
  <g id="patch_1">
   <path d="M 0 232.874687 
L 885.180313 232.874687 
L 885.180313 0 
L 0 0 
z
" style="fill: #ffffff"/>
  </g>
  <g id="axes_1">
   <g id="patch_2">
    <path d="M 42.620313 195.318437 
L 282.631148 195.318437 
L 282.631148 20.798437 
L 42.620313 20.798437 
z
" style="fill: #ffffff"/>
   </g>
   <g id="matplotlib.axis_1">
    <g id="xtick_1">
     <g id="line2d_1">
      <defs>
       <path id="m445dd571c8" d="M 0 0 
L 0 3.5 
" style="stroke: #000000; stroke-width: 0.8"/>
      </defs>
      <g>
       <use xlink:href="#m445dd571c8" x="105.480293" y="195.318437" style="stroke: #000000; stroke-width: 0.8"/>
      </g>
     </g>
     <g id="text_1">
      <!-- Uniform A -->
      <g transform="translate(80.595918 209.916875) scale(0.1 -0.1)">
       <defs>
        <path id="DejaVuSans-55" d="M 556 4666 
L 1191 4666 
L 1191 1831 
Q 1191 1081 1462 751 
Q 1734 422 2344 422 
Q 2950 422 3222 751 
Q 3494 1081 3494 1831 
L 3494 4666 
L 4128 4666 
L 4128 1753 
Q 4128 841 3676 375 
Q 3225 -91 2344 -91 
Q 1459 -91 1007 375 
Q 556 841 556 1753 
L 556 4666 
z
" transform="scale(0.015625)"/>
        <path id="DejaVuSans-6e" d="M 3513 2113 
L 3513 0 
L 2938 0 
L 2938 2094 
Q 2938 2591 2744 2837 
Q 2550 3084 2163 3084 
Q 1697 3084 1428 2787 
Q 1159 2491 1159 1978 
L 1159 0 
L 581 0 
L 581 3500 
L 1159 3500 
L 1159 2956 
Q 1366 3272 1645 3428 
Q 1925 3584 2291 3584 
Q 2894 3584 3203 3211 
Q 3513 2838 3513 2113 
z
" transform="scale(0.015625)"/>
        <path id="DejaVuSans-69" d="M 603 3500 
L 1178 3500 
L 1178 0 
L 603 0 
L 603 3500 
z
M 603 4863 
L 1178 4863 
L 1178 4134 
L 603 4134 
L 603 4863 
z
" transform="scale(0.015625)"/>
        <path id="DejaVuSans-66" d="M 2375 4863 
L 2375 4384 
L 1825 4384 
Q 1516 4384 1395 4259 
Q 1275 4134 1275 3809 
L 1275 3500 
L 2222 3500 
L 2222 3053 
L 1275 3053 
L 1275 0 
L 697 0 
L 697 3053 
L 147 3053 
L 147 3500 
L 697 3500 
L 697 3744 
Q 697 4328 969 4595 
Q 1241 4863 1831 4863 
L 2375 4863 
z
" transform="scale(0.015625)"/>
        <path id="DejaVuSans-6f" d="M 1959 3097 
Q 1497 3097 1228 2736 
Q 959 2375 959 1747 
Q 959 1119 1226 758 
Q 1494 397 1959 397 
Q 2419 397 2687 759 
Q 2956 1122 2956 1747 
Q 2956 2369 2687 2733 
Q 2419 3097 1959 3097 
z
M 1959 3584 
Q 2709 3584 3137 3096 
Q 3566 2609 3566 1747 
Q 3566 888 3137 398 
Q 2709 -91 1959 -91 
Q 1206 -91 779 398 
Q 353 888 353 1747 
Q 353 2609 779 3096 
Q 1206 3584 1959 3584 
z
" transform="scale(0.015625)"/>
        <path id="DejaVuSans-72" d="M 2631 2963 
Q 2534 3019 2420 3045 
Q 2306 3072 2169 3072 
Q 1681 3072 1420 2755 
Q 1159 2438 1159 1844 
L 1159 0 
L 581 0 
L 581 3500 
L 1159 3500 
L 1159 2956 
Q 1341 3275 1631 3429 
Q 1922 3584 2338 3584 
Q 2397 3584 2469 3576 
Q 2541 3569 2628 3553 
L 2631 2963 
z
" transform="scale(0.015625)"/>
        <path id="DejaVuSans-6d" d="M 3328 2828 
Q 3544 3216 3844 3400 
Q 4144 3584 4550 3584 
Q 5097 3584 5394 3201 
Q 5691 2819 5691 2113 
L 5691 0 
L 5113 0 
L 5113 2094 
Q 5113 2597 4934 2840 
Q 4756 3084 4391 3084 
Q 3944 3084 3684 2787 
Q 3425 2491 3425 1978 
L 3425 0 
L 2847 0 
L 2847 2094 
Q 2847 2600 2669 2842 
Q 2491 3084 2119 3084 
Q 1678 3084 1418 2786 
Q 1159 2488 1159 1978 
L 1159 0 
L 581 0 
L 581 3500 
L 1159 3500 
L 1159 2956 
Q 1356 3278 1631 3431 
Q 1906 3584 2284 3584 
Q 2666 3584 2933 3390 
Q 3200 3197 3328 2828 
z
" transform="scale(0.015625)"/>
        <path id="DejaVuSans-20" transform="scale(0.015625)"/>
        <path id="DejaVuSans-41" d="M 2188 4044 
L 1331 1722 
L 3047 1722 
L 2188 4044 
z
M 1831 4666 
L 2547 4666 
L 4325 0 
L 3669 0 
L 3244 1197 
L 1141 1197 
L 716 0 
L 50 0 
L 1831 4666 
z
" transform="scale(0.015625)"/>
       </defs>
       <use xlink:href="#DejaVuSans-55"/>
       <use xlink:href="#DejaVuSans-6e" transform="translate(73.193359 0)"/>
       <use xlink:href="#DejaVuSans-69" transform="translate(136.572266 0)"/>
       <use xlink:href="#DejaVuSans-66" transform="translate(164.355469 0)"/>
       <use xlink:href="#DejaVuSans-6f" transform="translate(199.560547 0)"/>
       <use xlink:href="#DejaVuSans-72" transform="translate(260.742188 0)"/>
       <use xlink:href="#DejaVuSans-6d" transform="translate(300.105469 0)"/>
       <use xlink:href="#DejaVuSans-20" transform="translate(397.517578 0)"/>
       <use xlink:href="#DejaVuSans-41" transform="translate(429.304688 0)"/>
      </g>
     </g>
    </g>
    <g id="xtick_2">
     <g id="line2d_2">
      <g>
       <use xlink:href="#m445dd571c8" x="219.771168" y="195.318437" style="stroke: #000000; stroke-width: 0.8"/>
      </g>
     </g>
     <g id="text_2">
      <!-- Routed R -->
      <g transform="translate(197.019605 209.916875) scale(0.1 -0.1)">
       <defs>
        <path id="DejaVuSans-52" d="M 2841 2188 
Q 3044 2119 3236 1894 
Q 3428 1669 3622 1275 
L 4263 0 
L 3584 0 
L 2988 1197 
Q 2756 1666 2539 1819 
Q 2322 1972 1947 1972 
L 1259 1972 
L 1259 0 
L 628 0 
L 628 4666 
L 2053 4666 
Q 2853 4666 3247 4331 
Q 3641 3997 3641 3322 
Q 3641 2881 3436 2590 
Q 3231 2300 2841 2188 
z
M 1259 4147 
L 1259 2491 
L 2053 2491 
Q 2509 2491 2742 2702 
Q 2975 2913 2975 3322 
Q 2975 3731 2742 3939 
Q 2509 4147 2053 4147 
L 1259 4147 
z
" transform="scale(0.015625)"/>
        <path id="DejaVuSans-75" d="M 544 1381 
L 544 3500 
L 1119 3500 
L 1119 1403 
Q 1119 906 1312 657 
Q 1506 409 1894 409 
Q 2359 409 2629 706 
Q 2900 1003 2900 1516 
L 2900 3500 
L 3475 3500 
L 3475 0 
L 2900 0 
L 2900 538 
Q 2691 219 2414 64 
Q 2138 -91 1772 -91 
Q 1169 -91 856 284 
Q 544 659 544 1381 
z
M 1991 3584 
L 1991 3584 
z
" transform="scale(0.015625)"/>
        <path id="DejaVuSans-74" d="M 1172 4494 
L 1172 3500 
L 2356 3500 
L 2356 3053 
L 1172 3053 
L 1172 1153 
Q 1172 725 1289 603 
Q 1406 481 1766 481 
L 2356 481 
L 2356 0 
L 1766 0 
Q 1100 0 847 248 
Q 594 497 594 1153 
L 594 3053 
L 172 3053 
L 172 3500 
L 594 3500 
L 594 4494 
L 1172 4494 
z
" transform="scale(0.015625)"/>
        <path id="DejaVuSans-65" d="M 3597 1894 
L 3597 1613 
L 953 1613 
Q 991 1019 1311 708 
Q 1631 397 2203 397 
Q 2534 397 2845 478 
Q 3156 559 3463 722 
L 3463 178 
Q 3153 47 2828 -22 
Q 2503 -91 2169 -91 
Q 1331 -91 842 396 
Q 353 884 353 1716 
Q 353 2575 817 3079 
Q 1281 3584 2069 3584 
Q 2775 3584 3186 3129 
Q 3597 2675 3597 1894 
z
M 3022 2063 
Q 3016 2534 2758 2815 
Q 2500 3097 2075 3097 
Q 1594 3097 1305 2825 
Q 1016 2553 972 2059 
L 3022 2063 
z
" transform="scale(0.015625)"/>
        <path id="DejaVuSans-64" d="M 2906 2969 
L 2906 4863 
L 3481 4863 
L 3481 0 
L 2906 0 
L 2906 525 
Q 2725 213 2448 61 
Q 2172 -91 1784 -91 
Q 1150 -91 751 415 
Q 353 922 353 1747 
Q 353 2572 751 3078 
Q 1150 3584 1784 3584 
Q 2172 3584 2448 3432 
Q 2725 3281 2906 2969 
z
M 947 1747 
Q 947 1113 1208 752 
Q 1469 391 1925 391 
Q 2381 391 2643 752 
Q 2906 1113 2906 1747 
Q 2906 2381 2643 2742 
Q 2381 3103 1925 3103 
Q 1469 3103 1208 2742 
Q 947 2381 947 1747 
z
" transform="scale(0.015625)"/>
       </defs>
       <use xlink:href="#DejaVuSans-52"/>
       <use xlink:href="#DejaVuSans-6f" transform="translate(64.982422 0)"/>
       <use xlink:href="#DejaVuSans-75" transform="translate(126.164062 0)"/>
       <use xlink:href="#DejaVuSans-74" transform="translate(189.542969 0)"/>
       <use xlink:href="#DejaVuSans-65" transform="translate(228.751953 0)"/>
       <use xlink:href="#DejaVuSans-64" transform="translate(290.275391 0)"/>
       <use xlink:href="#DejaVuSans-20" transform="translate(353.751953 0)"/>
       <use xlink:href="#DejaVuSans-52" transform="translate(385.539062 0)"/>
      </g>
     </g>
    </g>
   </g>
   <g id="matplotlib.axis_2">
    <g id="ytick_1">
     <g id="line2d_3">
      <path d="M 42.620313 189.975158 
L 282.631148 189.975158 
" clip-path="url(#p60b6b93d98)" style="fill: none; stroke: #e8e8e8; stroke-width: 0.5; stroke-linecap: square"/>
     </g>
     <g id="line2d_4">
      <defs>
       <path id="maa0bf13b11" d="M 0 0 
L -3.5 0 
" style="stroke: #000000; stroke-width: 0.8"/>
      </defs>
      <g>
       <use xlink:href="#maa0bf13b11" x="42.620313" y="189.975158" style="stroke: #000000; stroke-width: 0.8"/>
      </g>
     </g>
     <g id="text_3">
      <!-- −1 -->
      <g transform="translate(20.878125 193.774376) scale(0.1 -0.1)">
       <defs>
        <path id="DejaVuSans-2212" d="M 678 2272 
L 4684 2272 
L 4684 1741 
L 678 1741 
L 678 2272 
z
" transform="scale(0.015625)"/>
        <path id="DejaVuSans-31" d="M 794 531 
L 1825 531 
L 1825 4091 
L 703 3866 
L 703 4441 
L 1819 4666 
L 2450 4666 
L 2450 531 
L 3481 531 
L 3481 0 
L 794 0 
L 794 531 
z
" transform="scale(0.015625)"/>
       </defs>
       <use xlink:href="#DejaVuSans-2212"/>
       <use xlink:href="#DejaVuSans-31" transform="translate(83.789062 0)"/>
      </g>
     </g>
    </g>
    <g id="ytick_2">
     <g id="line2d_5">
      <path d="M 42.620313 161.58051 
L 282.631148 161.58051 
" clip-path="url(#p60b6b93d98)" style="fill: none; stroke: #e8e8e8; stroke-width: 0.5; stroke-linecap: square"/>
     </g>
     <g id="line2d_6">
      <g>
       <use xlink:href="#maa0bf13b11" x="42.620313" y="161.58051" style="stroke: #000000; stroke-width: 0.8"/>
      </g>
     </g>
     <g id="text_4">
      <!-- 0 -->
      <g transform="translate(29.257813 165.379729) scale(0.1 -0.1)">
       <defs>
        <path id="DejaVuSans-30" d="M 2034 4250 
Q 1547 4250 1301 3770 
Q 1056 3291 1056 2328 
Q 1056 1369 1301 889 
Q 1547 409 2034 409 
Q 2525 409 2770 889 
Q 3016 1369 3016 2328 
Q 3016 3291 2770 3770 
Q 2525 4250 2034 4250 
z
M 2034 4750 
Q 2819 4750 3233 4129 
Q 3647 3509 3647 2328 
Q 3647 1150 3233 529 
Q 2819 -91 2034 -91 
Q 1250 -91 836 529 
Q 422 1150 422 2328 
Q 422 3509 836 4129 
Q 1250 4750 2034 4750 
z
" transform="scale(0.015625)"/>
       </defs>
       <use xlink:href="#DejaVuSans-30"/>
      </g>
     </g>
    </g>
    <g id="ytick_3">
     <g id="line2d_7">
      <path d="M 42.620313 133.185863 
L 282.631148 133.185863 
" clip-path="url(#p60b6b93d98)" style="fill: none; stroke: #e8e8e8; stroke-width: 0.5; stroke-linecap: square"/>
     </g>
     <g id="line2d_8">
      <g>
       <use xlink:href="#maa0bf13b11" x="42.620313" y="133.185863" style="stroke: #000000; stroke-width: 0.8"/>
      </g>
     </g>
     <g id="text_5">
      <!-- 1 -->
      <g transform="translate(29.257813 136.985081) scale(0.1 -0.1)">
       <use xlink:href="#DejaVuSans-31"/>
      </g>
     </g>
    </g>
    <g id="ytick_4">
     <g id="line2d_9">
      <path d="M 42.620313 104.791215 
L 282.631148 104.791215 
" clip-path="url(#p60b6b93d98)" style="fill: none; stroke: #e8e8e8; stroke-width: 0.5; stroke-linecap: square"/>
     </g>
     <g id="line2d_10">
      <g>
       <use xlink:href="#maa0bf13b11" x="42.620313" y="104.791215" style="stroke: #000000; stroke-width: 0.8"/>
      </g>
     </g>
     <g id="text_6">
      <!-- 2 -->
      <g transform="translate(29.257813 108.590434) scale(0.1 -0.1)">
       <defs>
        <path id="DejaVuSans-32" d="M 1228 531 
L 3431 531 
L 3431 0 
L 469 0 
L 469 531 
Q 828 903 1448 1529 
Q 2069 2156 2228 2338 
Q 2531 2678 2651 2914 
Q 2772 3150 2772 3378 
Q 2772 3750 2511 3984 
Q 2250 4219 1831 4219 
Q 1534 4219 1204 4116 
Q 875 4013 500 3803 
L 500 4441 
Q 881 4594 1212 4672 
Q 1544 4750 1819 4750 
Q 2544 4750 2975 4387 
Q 3406 4025 3406 3419 
Q 3406 3131 3298 2873 
Q 3191 2616 2906 2266 
Q 2828 2175 2409 1742 
Q 1991 1309 1228 531 
z
" transform="scale(0.015625)"/>
       </defs>
       <use xlink:href="#DejaVuSans-32"/>
      </g>
     </g>
    </g>
    <g id="ytick_5">
     <g id="line2d_11">
      <path d="M 42.620313 76.396568 
L 282.631148 76.396568 
" clip-path="url(#p60b6b93d98)" style="fill: none; stroke: #e8e8e8; stroke-width: 0.5; stroke-linecap: square"/>
     </g>
     <g id="line2d_12">
      <g>
       <use xlink:href="#maa0bf13b11" x="42.620313" y="76.396568" style="stroke: #000000; stroke-width: 0.8"/>
      </g>
     </g>
     <g id="text_7">
      <!-- 3 -->
      <g transform="translate(29.257813 80.195786) scale(0.1 -0.1)">
       <defs>
        <path id="DejaVuSans-33" d="M 2597 2516 
Q 3050 2419 3304 2112 
Q 3559 1806 3559 1356 
Q 3559 666 3084 287 
Q 2609 -91 1734 -91 
Q 1441 -91 1130 -33 
Q 819 25 488 141 
L 488 750 
Q 750 597 1062 519 
Q 1375 441 1716 441 
Q 2309 441 2620 675 
Q 2931 909 2931 1356 
Q 2931 1769 2642 2001 
Q 2353 2234 1838 2234 
L 1294 2234 
L 1294 2753 
L 1863 2753 
Q 2328 2753 2575 2939 
Q 2822 3125 2822 3475 
Q 2822 3834 2567 4026 
Q 2313 4219 1838 4219 
Q 1578 4219 1281 4162 
Q 984 4106 628 3988 
L 628 4550 
Q 988 4650 1302 4700 
Q 1616 4750 1894 4750 
Q 2613 4750 3031 4423 
Q 3450 4097 3450 3541 
Q 3450 3153 3228 2886 
Q 3006 2619 2597 2516 
z
" transform="scale(0.015625)"/>
       </defs>
       <use xlink:href="#DejaVuSans-33"/>
      </g>
     </g>
    </g>
    <g id="ytick_6">
     <g id="line2d_13">
      <path d="M 42.620313 48.00192 
L 282.631148 48.00192 
" clip-path="url(#p60b6b93d98)" style="fill: none; stroke: #e8e8e8; stroke-width: 0.5; stroke-linecap: square"/>
     </g>
     <g id="line2d_14">
      <g>
       <use xlink:href="#maa0bf13b11" x="42.620313" y="48.00192" style="stroke: #000000; stroke-width: 0.8"/>
      </g>
     </g>
     <g id="text_8">
      <!-- 4 -->
      <g transform="translate(29.257813 51.801139) scale(0.1 -0.1)">
       <defs>
        <path id="DejaVuSans-34" d="M 2419 4116 
L 825 1625 
L 2419 1625 
L 2419 4116 
z
M 2253 4666 
L 3047 4666 
L 3047 1625 
L 3713 1625 
L 3713 1100 
L 3047 1100 
L 3047 0 
L 2419 0 
L 2419 1100 
L 313 1100 
L 313 1709 
L 2253 4666 
z
" transform="scale(0.015625)"/>
       </defs>
       <use xlink:href="#DejaVuSans-34"/>
      </g>
     </g>
    </g>
    <g id="text_9">
     <!-- Dense vIoU gain (pp) -->
     <g transform="translate(14.798438 160.801406) rotate(-90) scale(0.1 -0.1)">
      <defs>
       <path id="DejaVuSans-44" d="M 1259 4147 
L 1259 519 
L 2022 519 
Q 2988 519 3436 956 
Q 3884 1394 3884 2338 
Q 3884 3275 3436 3711 
Q 2988 4147 2022 4147 
L 1259 4147 
z
M 628 4666 
L 1925 4666 
Q 3281 4666 3915 4102 
Q 4550 3538 4550 2338 
Q 4550 1131 3912 565 
Q 3275 0 1925 0 
L 628 0 
L 628 4666 
z
" transform="scale(0.015625)"/>
       <path id="DejaVuSans-73" d="M 2834 3397 
L 2834 2853 
Q 2591 2978 2328 3040 
Q 2066 3103 1784 3103 
Q 1356 3103 1142 2972 
Q 928 2841 928 2578 
Q 928 2378 1081 2264 
Q 1234 2150 1697 2047 
L 1894 2003 
Q 2506 1872 2764 1633 
Q 3022 1394 3022 966 
Q 3022 478 2636 193 
Q 2250 -91 1575 -91 
Q 1294 -91 989 -36 
Q 684 19 347 128 
L 347 722 
Q 666 556 975 473 
Q 1284 391 1588 391 
Q 1994 391 2212 530 
Q 2431 669 2431 922 
Q 2431 1156 2273 1281 
Q 2116 1406 1581 1522 
L 1381 1569 
Q 847 1681 609 1914 
Q 372 2147 372 2553 
Q 372 3047 722 3315 
Q 1072 3584 1716 3584 
Q 2034 3584 2315 3537 
Q 2597 3491 2834 3397 
z
" transform="scale(0.015625)"/>
       <path id="DejaVuSans-76" d="M 191 3500 
L 800 3500 
L 1894 563 
L 2988 3500 
L 3597 3500 
L 2284 0 
L 1503 0 
L 191 3500 
z
" transform="scale(0.015625)"/>
       <path id="DejaVuSans-49" d="M 628 4666 
L 1259 4666 
L 1259 0 
L 628 0 
L 628 4666 
z
" transform="scale(0.015625)"/>
       <path id="DejaVuSans-67" d="M 2906 1791 
Q 2906 2416 2648 2759 
Q 2391 3103 1925 3103 
Q 1463 3103 1205 2759 
Q 947 2416 947 1791 
Q 947 1169 1205 825 
Q 1463 481 1925 481 
Q 2391 481 2648 825 
Q 2906 1169 2906 1791 
z
M 3481 434 
Q 3481 -459 3084 -895 
Q 2688 -1331 1869 -1331 
Q 1566 -1331 1297 -1286 
Q 1028 -1241 775 -1147 
L 775 -588 
Q 1028 -725 1275 -790 
Q 1522 -856 1778 -856 
Q 2344 -856 2625 -561 
Q 2906 -266 2906 331 
L 2906 616 
Q 2728 306 2450 153 
Q 2172 0 1784 0 
Q 1141 0 747 490 
Q 353 981 353 1791 
Q 353 2603 747 3093 
Q 1141 3584 1784 3584 
Q 2172 3584 2450 3431 
Q 2728 3278 2906 2969 
L 2906 3500 
L 3481 3500 
L 3481 434 
z
" transform="scale(0.015625)"/>
       <path id="DejaVuSans-61" d="M 2194 1759 
Q 1497 1759 1228 1600 
Q 959 1441 959 1056 
Q 959 750 1161 570 
Q 1363 391 1709 391 
Q 2188 391 2477 730 
Q 2766 1069 2766 1631 
L 2766 1759 
L 2194 1759 
z
M 3341 1997 
L 3341 0 
L 2766 0 
L 2766 531 
Q 2569 213 2275 61 
Q 1981 -91 1556 -91 
Q 1019 -91 701 211 
Q 384 513 384 1019 
Q 384 1609 779 1909 
Q 1175 2209 1959 2209 
L 2766 2209 
L 2766 2266 
Q 2766 2663 2505 2880 
Q 2244 3097 1772 3097 
Q 1472 3097 1187 3025 
Q 903 2953 641 2809 
L 641 3341 
Q 956 3463 1253 3523 
Q 1550 3584 1831 3584 
Q 2591 3584 2966 3190 
Q 3341 2797 3341 1997 
z
" transform="scale(0.015625)"/>
       <path id="DejaVuSans-28" d="M 1984 4856 
Q 1566 4138 1362 3434 
Q 1159 2731 1159 2009 
Q 1159 1288 1364 580 
Q 1569 -128 1984 -844 
L 1484 -844 
Q 1016 -109 783 600 
Q 550 1309 550 2009 
Q 550 2706 781 3412 
Q 1013 4119 1484 4856 
L 1984 4856 
z
" transform="scale(0.015625)"/>
       <path id="DejaVuSans-70" d="M 1159 525 
L 1159 -1331 
L 581 -1331 
L 581 3500 
L 1159 3500 
L 1159 2969 
Q 1341 3281 1617 3432 
Q 1894 3584 2278 3584 
Q 2916 3584 3314 3078 
Q 3713 2572 3713 1747 
Q 3713 922 3314 415 
Q 2916 -91 2278 -91 
Q 1894 -91 1617 61 
Q 1341 213 1159 525 
z
M 3116 1747 
Q 3116 2381 2855 2742 
Q 2594 3103 2138 3103 
Q 1681 3103 1420 2742 
Q 1159 2381 1159 1747 
Q 1159 1113 1420 752 
Q 1681 391 2138 391 
Q 2594 391 2855 752 
Q 3116 1113 3116 1747 
z
" transform="scale(0.015625)"/>
       <path id="DejaVuSans-29" d="M 513 4856 
L 1013 4856 
Q 1481 4119 1714 3412 
Q 1947 2706 1947 2009 
Q 1947 1309 1714 600 
Q 1481 -109 1013 -844 
L 513 -844 
Q 928 -128 1133 580 
Q 1338 1288 1338 2009 
Q 1338 2731 1133 3434 
Q 928 4138 513 4856 
z
" transform="scale(0.015625)"/>
      </defs>
      <use xlink:href="#DejaVuSans-44"/>
      <use xlink:href="#DejaVuSans-65" transform="translate(77.001953 0)"/>
      <use xlink:href="#DejaVuSans-6e" transform="translate(138.525391 0)"/>
      <use xlink:href="#DejaVuSans-73" transform="translate(201.904297 0)"/>
      <use xlink:href="#DejaVuSans-65" transform="translate(254.003906 0)"/>
      <use xlink:href="#DejaVuSans-20" transform="translate(315.527344 0)"/>
      <use xlink:href="#DejaVuSans-76" transform="translate(347.314453 0)"/>
      <use xlink:href="#DejaVuSans-49" transform="translate(406.494141 0)"/>
      <use xlink:href="#DejaVuSans-6f" transform="translate(435.986328 0)"/>
      <use xlink:href="#DejaVuSans-55" transform="translate(497.167969 0)"/>
      <use xlink:href="#DejaVuSans-20" transform="translate(570.361328 0)"/>
      <use xlink:href="#DejaVuSans-67" transform="translate(602.148438 0)"/>
      <use xlink:href="#DejaVuSans-61" transform="translate(665.625 0)"/>
      <use xlink:href="#DejaVuSans-69" transform="translate(726.904297 0)"/>
      <use xlink:href="#DejaVuSans-6e" transform="translate(754.6875 0)"/>
      <use xlink:href="#DejaVuSans-20" transform="translate(818.066406 0)"/>
      <use xlink:href="#DejaVuSans-28" transform="translate(849.853516 0)"/>
      <use xlink:href="#DejaVuSans-70" transform="translate(888.867188 0)"/>
      <use xlink:href="#DejaVuSans-70" transform="translate(952.34375 0)"/>
      <use xlink:href="#DejaVuSans-29" transform="translate(1015.820312 0)"/>
     </g>
    </g>
   </g>
   <g id="LineCollection_1">
    <path d="M 94.051206 187.38571 
L 94.051206 28.731165 
" clip-path="url(#p60b6b93d98)" style="fill: none; stroke: #3675ad; stroke-width: 1.5"/>
   </g>
   <g id="line2d_15">
    <defs>
     <path id="m34c8c88296" d="M 3 0 
L -3 -0 
" style="stroke: #3675ad"/>
    </defs>
    <g clip-path="url(#p60b6b93d98)">
     <use xlink:href="#m34c8c88296" x="94.051206" y="187.38571" style="fill: #3675ad; stroke: #3675ad"/>
    </g>
   </g>
   <g id="line2d_16">
    <g clip-path="url(#p60b6b93d98)">
     <use xlink:href="#m34c8c88296" x="94.051206" y="28.731165" style="fill: #3675ad; stroke: #3675ad"/>
    </g>
   </g>
   <g id="LineCollection_2">
    <path d="M 116.909381 186.349961 
L 116.909381 112.018548 
" clip-path="url(#p60b6b93d98)" style="fill: none; stroke: #3675ad; stroke-width: 1.5"/>
   </g>
   <g id="line2d_17">
    <g clip-path="url(#p60b6b93d98)">
     <use xlink:href="#m34c8c88296" x="116.909381" y="186.349961" style="fill: #3675ad; stroke: #3675ad"/>
    </g>
   </g>
   <g id="line2d_18">
    <g clip-path="url(#p60b6b93d98)">
     <use xlink:href="#m34c8c88296" x="116.909381" y="112.018548" style="fill: #3675ad; stroke: #3675ad"/>
    </g>
   </g>
   <g id="LineCollection_3">
    <path d="M 208.34208 174.285005 
L 208.34208 67.421538 
" clip-path="url(#p60b6b93d98)" style="fill: none; stroke: #d17a35; stroke-width: 1.5"/>
   </g>
   <g id="line2d_19">
    <defs>
     <path id="mf5d1b7cdae" d="M 3 0 
L -3 -0 
" style="stroke: #d17a35"/>
    </defs>
    <g clip-path="url(#p60b6b93d98)">
     <use xlink:href="#mf5d1b7cdae" x="208.34208" y="174.285005" style="fill: #d17a35; stroke: #d17a35"/>
    </g>
   </g>
   <g id="line2d_20">
    <g clip-path="url(#p60b6b93d98)">
     <use xlink:href="#mf5d1b7cdae" x="208.34208" y="67.421538" style="fill: #d17a35; stroke: #d17a35"/>
    </g>
   </g>
   <g id="LineCollection_4">
    <path d="M 231.200255 163.326347 
L 231.200255 152.593512 
" clip-path="url(#p60b6b93d98)" style="fill: none; stroke: #d17a35; stroke-width: 1.5"/>
   </g>
   <g id="line2d_21">
    <g clip-path="url(#p60b6b93d98)">
     <use xlink:href="#mf5d1b7cdae" x="231.200255" y="163.326347" style="fill: #d17a35; stroke: #d17a35"/>
    </g>
   </g>
   <g id="line2d_22">
    <g clip-path="url(#p60b6b93d98)">
     <use xlink:href="#mf5d1b7cdae" x="231.200255" y="152.593512" style="fill: #d17a35; stroke: #d17a35"/>
    </g>
   </g>
   <g id="line2d_23">
    <path d="M 42.620313 161.58051 
L 282.631148 161.58051 
" clip-path="url(#p60b6b93d98)" style="fill: none; stroke-dasharray: 2.96,1.28; stroke-dashoffset: 0; stroke: #8b8b8b; stroke-width: 0.8"/>
   </g>
   <g id="line2d_24"/>
   <g id="line2d_25"/>
   <g id="line2d_26">
    <defs>
     <path id="m618cda869f" d="M 0 3.5 
C 0.928211 3.5 1.81853 3.131218 2.474874 2.474874 
C 3.131218 1.81853 3.5 0.928211 3.5 0 
C 3.5 -0.928211 3.131218 -1.81853 2.474874 -2.474874 
C 1.81853 -3.131218 0.928211 -3.5 0 -3.5 
C -0.928211 -3.5 -1.81853 -3.131218 -2.474874 -2.474874 
C -3.131218 -1.81853 -3.5 -0.928211 -3.5 0 
C -3.5 0.928211 -3.131218 1.81853 -2.474874 2.474874 
C -1.81853 3.131218 -0.928211 3.5 0 3.5 
z
" style="stroke: #3675ad"/>
    </defs>
    <g clip-path="url(#p60b6b93d98)">
     <use xlink:href="#m618cda869f" x="94.051206" y="124.243044" style="fill: #3675ad; stroke: #3675ad"/>
    </g>
   </g>
   <g id="line2d_27">
    <defs>
     <path id="m66bce85cf4" d="M -3.5 3.5 
L 3.5 3.5 
L 3.5 -3.5 
L -3.5 -3.5 
z
" style="stroke: #3675ad; stroke-linejoin: miter"/>
    </defs>
    <g clip-path="url(#p60b6b93d98)">
     <use xlink:href="#m66bce85cf4" x="116.909381" y="150.986932" style="fill: #ffffff; stroke: #3675ad; stroke-linejoin: miter"/>
    </g>
   </g>
   <g id="line2d_28">
    <defs>
     <path id="mb7a99e16d8" d="M 0 3.5 
C 0.928211 3.5 1.81853 3.131218 2.474874 2.474874 
C 3.131218 1.81853 3.5 0.928211 3.5 0 
C 3.5 -0.928211 3.131218 -1.81853 2.474874 -2.474874 
C 1.81853 -3.131218 0.928211 -3.5 0 -3.5 
C -0.928211 -3.5 -1.81853 -3.131218 -2.474874 -2.474874 
C -3.131218 -1.81853 -3.5 -0.928211 -3.5 0 
C -3.5 0.928211 -3.131218 1.81853 -2.474874 2.474874 
C -1.81853 3.131218 -0.928211 3.5 0 3.5 
z
" style="stroke: #d17a35"/>
    </defs>
    <g clip-path="url(#p60b6b93d98)">
     <use xlink:href="#mb7a99e16d8" x="208.34208" y="132.025789" style="fill: #d17a35; stroke: #d17a35"/>
    </g>
   </g>
   <g id="line2d_29">
    <defs>
     <path id="m5584735e5b" d="M -3.5 3.5 
L 3.5 3.5 
L 3.5 -3.5 
L -3.5 -3.5 
z
" style="stroke: #d17a35; stroke-linejoin: miter"/>
    </defs>
    <g clip-path="url(#p60b6b93d98)">
     <use xlink:href="#m5584735e5b" x="231.200255" y="157.735444" style="fill: #ffffff; stroke: #d17a35; stroke-linejoin: miter"/>
    </g>
   </g>
   <g id="patch_3">
    <path d="M 42.620313 195.318437 
L 42.620313 20.798437 
" style="fill: none; stroke: #000000; stroke-width: 0.8; stroke-linejoin: miter; stroke-linecap: square"/>
   </g>
   <g id="patch_4">
    <path d="M 42.620313 195.318437 
L 282.631148 195.318437 
" style="fill: none; stroke: #000000; stroke-width: 0.8; stroke-linejoin: miter; stroke-linecap: square"/>
   </g>
   <g id="text_10">
    <!-- (a) Transfer relative to Source -->
    <g transform="translate(42.620313 14.798437) scale(0.1 -0.1)">
     <defs>
      <path id="DejaVuSans-Bold-28" d="M 2413 -844 
L 1484 -844 
Q 1006 -72 778 623 
Q 550 1319 550 2003 
Q 550 2688 779 3389 
Q 1009 4091 1484 4856 
L 2413 4856 
Q 2013 4116 1813 3408 
Q 1613 2700 1613 2009 
Q 1613 1319 1811 609 
Q 2009 -100 2413 -844 
z
" transform="scale(0.015625)"/>
      <path id="DejaVuSans-Bold-61" d="M 2106 1575 
Q 1756 1575 1579 1456 
Q 1403 1338 1403 1106 
Q 1403 894 1545 773 
Q 1688 653 1941 653 
Q 2256 653 2472 879 
Q 2688 1106 2688 1447 
L 2688 1575 
L 2106 1575 
z
M 3816 1997 
L 3816 0 
L 2688 0 
L 2688 519 
Q 2463 200 2181 54 
Q 1900 -91 1497 -91 
Q 953 -91 614 226 
Q 275 544 275 1050 
Q 275 1666 698 1953 
Q 1122 2241 2028 2241 
L 2688 2241 
L 2688 2328 
Q 2688 2594 2478 2717 
Q 2269 2841 1825 2841 
Q 1466 2841 1156 2769 
Q 847 2697 581 2553 
L 581 3406 
Q 941 3494 1303 3539 
Q 1666 3584 2028 3584 
Q 2975 3584 3395 3211 
Q 3816 2838 3816 1997 
z
" transform="scale(0.015625)"/>
      <path id="DejaVuSans-Bold-29" d="M 513 -844 
Q 913 -100 1113 609 
Q 1313 1319 1313 2009 
Q 1313 2700 1113 3408 
Q 913 4116 513 4856 
L 1441 4856 
Q 1916 4091 2145 3389 
Q 2375 2688 2375 2003 
Q 2375 1319 2147 623 
Q 1919 -72 1441 -844 
L 513 -844 
z
" transform="scale(0.015625)"/>
      <path id="DejaVuSans-Bold-20" transform="scale(0.015625)"/>
      <path id="DejaVuSans-Bold-54" d="M 31 4666 
L 4331 4666 
L 4331 3756 
L 2784 3756 
L 2784 0 
L 1581 0 
L 1581 3756 
L 31 3756 
L 31 4666 
z
" transform="scale(0.015625)"/>
      <path id="DejaVuSans-Bold-72" d="M 3138 2547 
Q 2991 2616 2845 2648 
Q 2700 2681 2553 2681 
Q 2122 2681 1889 2404 
Q 1656 2128 1656 1613 
L 1656 0 
L 538 0 
L 538 3500 
L 1656 3500 
L 1656 2925 
Q 1872 3269 2151 3426 
Q 2431 3584 2822 3584 
Q 2878 3584 2943 3579 
Q 3009 3575 3134 3559 
L 3138 2547 
z
" transform="scale(0.015625)"/>
      <path id="DejaVuSans-Bold-6e" d="M 4056 2131 
L 4056 0 
L 2931 0 
L 2931 347 
L 2931 1631 
Q 2931 2084 2911 2256 
Q 2891 2428 2841 2509 
Q 2775 2619 2662 2680 
Q 2550 2741 2406 2741 
Q 2056 2741 1856 2470 
Q 1656 2200 1656 1722 
L 1656 0 
L 538 0 
L 538 3500 
L 1656 3500 
L 1656 2988 
Q 1909 3294 2193 3439 
Q 2478 3584 2822 3584 
Q 3428 3584 3742 3212 
Q 4056 2841 4056 2131 
z
" transform="scale(0.015625)"/>
      <path id="DejaVuSans-Bold-73" d="M 3272 3391 
L 3272 2541 
Q 2913 2691 2578 2766 
Q 2244 2841 1947 2841 
Q 1628 2841 1473 2761 
Q 1319 2681 1319 2516 
Q 1319 2381 1436 2309 
Q 1553 2238 1856 2203 
L 2053 2175 
Q 2913 2066 3209 1816 
Q 3506 1566 3506 1031 
Q 3506 472 3093 190 
Q 2681 -91 1863 -91 
Q 1516 -91 1145 -36 
Q 775 19 384 128 
L 384 978 
Q 719 816 1070 734 
Q 1422 653 1784 653 
Q 2113 653 2278 743 
Q 2444 834 2444 1013 
Q 2444 1163 2330 1236 
Q 2216 1309 1875 1350 
L 1678 1375 
Q 931 1469 631 1722 
Q 331 1975 331 2491 
Q 331 3047 712 3315 
Q 1094 3584 1881 3584 
Q 2191 3584 2531 3537 
Q 2872 3491 3272 3391 
z
" transform="scale(0.015625)"/>
      <path id="DejaVuSans-Bold-66" d="M 2841 4863 
L 2841 4128 
L 2222 4128 
Q 1984 4128 1890 4042 
Q 1797 3956 1797 3744 
L 1797 3500 
L 2753 3500 
L 2753 2700 
L 1797 2700 
L 1797 0 
L 678 0 
L 678 2700 
L 122 2700 
L 122 3500 
L 678 3500 
L 678 3744 
Q 678 4316 997 4589 
Q 1316 4863 1984 4863 
L 2841 4863 
z
" transform="scale(0.015625)"/>
      <path id="DejaVuSans-Bold-65" d="M 4031 1759 
L 4031 1441 
L 1416 1441 
Q 1456 1047 1700 850 
Q 1944 653 2381 653 
Q 2734 653 3104 758 
Q 3475 863 3866 1075 
L 3866 213 
Q 3469 63 3072 -14 
Q 2675 -91 2278 -91 
Q 1328 -91 801 392 
Q 275 875 275 1747 
Q 275 2603 792 3093 
Q 1309 3584 2216 3584 
Q 3041 3584 3536 3087 
Q 4031 2591 4031 1759 
z
M 2881 2131 
Q 2881 2450 2695 2645 
Q 2509 2841 2209 2841 
Q 1884 2841 1681 2658 
Q 1478 2475 1428 2131 
L 2881 2131 
z
" transform="scale(0.015625)"/>
      <path id="DejaVuSans-Bold-6c" d="M 538 4863 
L 1656 4863 
L 1656 0 
L 538 0 
L 538 4863 
z
" transform="scale(0.015625)"/>
      <path id="DejaVuSans-Bold-74" d="M 1759 4494 
L 1759 3500 
L 2913 3500 
L 2913 2700 
L 1759 2700 
L 1759 1216 
Q 1759 972 1856 886 
Q 1953 800 2241 800 
L 2816 800 
L 2816 0 
L 1856 0 
Q 1194 0 917 276 
Q 641 553 641 1216 
L 641 2700 
L 84 2700 
L 84 3500 
L 641 3500 
L 641 4494 
L 1759 4494 
z
" transform="scale(0.015625)"/>
      <path id="DejaVuSans-Bold-69" d="M 538 3500 
L 1656 3500 
L 1656 0 
L 538 0 
L 538 3500 
z
M 538 4863 
L 1656 4863 
L 1656 3950 
L 538 3950 
L 538 4863 
z
" transform="scale(0.015625)"/>
      <path id="DejaVuSans-Bold-76" d="M 97 3500 
L 1216 3500 
L 2088 1081 
L 2956 3500 
L 4078 3500 
L 2700 0 
L 1472 0 
L 97 3500 
z
" transform="scale(0.015625)"/>
      <path id="DejaVuSans-Bold-6f" d="M 2203 2784 
Q 1831 2784 1636 2517 
Q 1441 2250 1441 1747 
Q 1441 1244 1636 976 
Q 1831 709 2203 709 
Q 2569 709 2762 976 
Q 2956 1244 2956 1747 
Q 2956 2250 2762 2517 
Q 2569 2784 2203 2784 
z
M 2203 3584 
Q 3106 3584 3614 3096 
Q 4122 2609 4122 1747 
Q 4122 884 3614 396 
Q 3106 -91 2203 -91 
Q 1297 -91 786 396 
Q 275 884 275 1747 
Q 275 2609 786 3096 
Q 1297 3584 2203 3584 
z
" transform="scale(0.015625)"/>
      <path id="DejaVuSans-Bold-53" d="M 3834 4519 
L 3834 3531 
Q 3450 3703 3084 3790 
Q 2719 3878 2394 3878 
Q 1963 3878 1756 3759 
Q 1550 3641 1550 3391 
Q 1550 3203 1689 3098 
Q 1828 2994 2194 2919 
L 2706 2816 
Q 3484 2659 3812 2340 
Q 4141 2022 4141 1434 
Q 4141 663 3683 286 
Q 3225 -91 2284 -91 
Q 1841 -91 1394 -6 
Q 947 78 500 244 
L 500 1259 
Q 947 1022 1364 901 
Q 1781 781 2169 781 
Q 2563 781 2772 912 
Q 2981 1044 2981 1288 
Q 2981 1506 2839 1625 
Q 2697 1744 2272 1838 
L 1806 1941 
Q 1106 2091 782 2419 
Q 459 2747 459 3303 
Q 459 4000 909 4375 
Q 1359 4750 2203 4750 
Q 2588 4750 2994 4692 
Q 3400 4634 3834 4519 
z
" transform="scale(0.015625)"/>
      <path id="DejaVuSans-Bold-75" d="M 500 1363 
L 500 3500 
L 1625 3500 
L 1625 3150 
Q 1625 2866 1622 2436 
Q 1619 2006 1619 1863 
Q 1619 1441 1641 1255 
Q 1663 1069 1716 984 
Q 1784 875 1895 815 
Q 2006 756 2150 756 
Q 2500 756 2700 1025 
Q 2900 1294 2900 1772 
L 2900 3500 
L 4019 3500 
L 4019 0 
L 2900 0 
L 2900 506 
Q 2647 200 2364 54 
Q 2081 -91 1741 -91 
Q 1134 -91 817 281 
Q 500 653 500 1363 
z
" transform="scale(0.015625)"/>
      <path id="DejaVuSans-Bold-63" d="M 3366 3391 
L 3366 2478 
Q 3138 2634 2908 2709 
Q 2678 2784 2431 2784 
Q 1963 2784 1702 2511 
Q 1441 2238 1441 1747 
Q 1441 1256 1702 982 
Q 1963 709 2431 709 
Q 2694 709 2930 787 
Q 3166 866 3366 1019 
L 3366 103 
Q 3103 6 2833 -42 
Q 2563 -91 2291 -91 
Q 1344 -91 809 395 
Q 275 881 275 1747 
Q 275 2613 809 3098 
Q 1344 3584 2291 3584 
Q 2566 3584 2833 3536 
Q 3100 3488 3366 3391 
z
" transform="scale(0.015625)"/>
     </defs>
     <use xlink:href="#DejaVuSans-Bold-28"/>
     <use xlink:href="#DejaVuSans-Bold-61" transform="translate(45.703125 0)"/>
     <use xlink:href="#DejaVuSans-Bold-29" transform="translate(113.183594 0)"/>
     <use xlink:href="#DejaVuSans-Bold-20" transform="translate(158.886719 0)"/>
     <use xlink:href="#DejaVuSans-Bold-54" transform="translate(193.701172 0)"/>
     <use xlink:href="#DejaVuSans-Bold-72" transform="translate(250.914062 0)"/>
     <use xlink:href="#DejaVuSans-Bold-61" transform="translate(300.230469 0)"/>
     <use xlink:href="#DejaVuSans-Bold-6e" transform="translate(367.710938 0)"/>
     <use xlink:href="#DejaVuSans-Bold-73" transform="translate(438.902344 0)"/>
     <use xlink:href="#DejaVuSans-Bold-66" transform="translate(498.423828 0)"/>
     <use xlink:href="#DejaVuSans-Bold-65" transform="translate(541.929688 0)"/>
     <use xlink:href="#DejaVuSans-Bold-72" transform="translate(609.751953 0)"/>
     <use xlink:href="#DejaVuSans-Bold-20" transform="translate(659.068359 0)"/>
     <use xlink:href="#DejaVuSans-Bold-72" transform="translate(693.882812 0)"/>
     <use xlink:href="#DejaVuSans-Bold-65" transform="translate(743.199219 0)"/>
     <use xlink:href="#DejaVuSans-Bold-6c" transform="translate(811.021484 0)"/>
     <use xlink:href="#DejaVuSans-Bold-61" transform="translate(845.298828 0)"/>
     <use xlink:href="#DejaVuSans-Bold-74" transform="translate(912.779297 0)"/>
     <use xlink:href="#DejaVuSans-Bold-69" transform="translate(960.582031 0)"/>
     <use xlink:href="#DejaVuSans-Bold-76" transform="translate(994.859375 0)"/>
     <use xlink:href="#DejaVuSans-Bold-65" transform="translate(1060.044922 0)"/>
     <use xlink:href="#DejaVuSans-Bold-20" transform="translate(1127.867188 0)"/>
     <use xlink:href="#DejaVuSans-Bold-74" transform="translate(1162.681641 0)"/>
     <use xlink:href="#DejaVuSans-Bold-6f" transform="translate(1210.484375 0)"/>
     <use xlink:href="#DejaVuSans-Bold-20" transform="translate(1279.185547 0)"/>
     <use xlink:href="#DejaVuSans-Bold-53" transform="translate(1314 0)"/>
     <use xlink:href="#DejaVuSans-Bold-6f" transform="translate(1386.021484 0)"/>
     <use xlink:href="#DejaVuSans-Bold-75" transform="translate(1454.722656 0)"/>
     <use xlink:href="#DejaVuSans-Bold-72" transform="translate(1525.914062 0)"/>
     <use xlink:href="#DejaVuSans-Bold-63" transform="translate(1575.230469 0)"/>
     <use xlink:href="#DejaVuSans-Bold-65" transform="translate(1634.507812 0)"/>
    </g>
   </g>
   <g id="legend_1">
    <g id="line2d_30">
     <defs>
      <path id="m5c8e49aa44" d="M 0 3 
C 0.795609 3 1.55874 2.683901 2.12132 2.12132 
C 2.683901 1.55874 3 0.795609 3 0 
C 3 -0.795609 2.683901 -1.55874 2.12132 -2.12132 
C 1.55874 -2.683901 0.795609 -3 0 -3 
C -0.795609 -3 -1.55874 -2.683901 -2.12132 -2.12132 
C -2.683901 -1.55874 -3 -0.795609 -3 0 
C -3 0.795609 -2.683901 1.55874 -2.12132 2.12132 
C -1.55874 2.683901 -0.795609 3 0 3 
z
" style="stroke: #606060"/>
     </defs>
     <g>
      <use xlink:href="#m5c8e49aa44" x="174.584898" y="31.277187" style="fill: #606060; stroke: #606060"/>
     </g>
    </g>
    <g id="text_11">
     <!-- All historical writes -->
     <g transform="translate(188.984898 34.077187) scale(0.08 -0.08)">
      <defs>
       <path id="DejaVuSans-6c" d="M 603 4863 
L 1178 4863 
L 1178 0 
L 603 0 
L 603 4863 
z
" transform="scale(0.015625)"/>
       <path id="DejaVuSans-68" d="M 3513 2113 
L 3513 0 
L 2938 0 
L 2938 2094 
Q 2938 2591 2744 2837 
Q 2550 3084 2163 3084 
Q 1697 3084 1428 2787 
Q 1159 2491 1159 1978 
L 1159 0 
L 581 0 
L 581 4863 
L 1159 4863 
L 1159 2956 
Q 1366 3272 1645 3428 
Q 1925 3584 2291 3584 
Q 2894 3584 3203 3211 
Q 3513 2838 3513 2113 
z
" transform="scale(0.015625)"/>
       <path id="DejaVuSans-63" d="M 3122 3366 
L 3122 2828 
Q 2878 2963 2633 3030 
Q 2388 3097 2138 3097 
Q 1578 3097 1268 2742 
Q 959 2388 959 1747 
Q 959 1106 1268 751 
Q 1578 397 2138 397 
Q 2388 397 2633 464 
Q 2878 531 3122 666 
L 3122 134 
Q 2881 22 2623 -34 
Q 2366 -91 2075 -91 
Q 1284 -91 818 406 
Q 353 903 353 1747 
Q 353 2603 823 3093 
Q 1294 3584 2113 3584 
Q 2378 3584 2631 3529 
Q 2884 3475 3122 3366 
z
" transform="scale(0.015625)"/>
       <path id="DejaVuSans-77" d="M 269 3500 
L 844 3500 
L 1563 769 
L 2278 3500 
L 2956 3500 
L 3675 769 
L 4391 3500 
L 4966 3500 
L 4050 0 
L 3372 0 
L 2619 2869 
L 1863 0 
L 1184 0 
L 269 3500 
z
" transform="scale(0.015625)"/>
      </defs>
      <use xlink:href="#DejaVuSans-41"/>
      <use xlink:href="#DejaVuSans-6c" transform="translate(68.408203 0)"/>
      <use xlink:href="#DejaVuSans-6c" transform="translate(96.191406 0)"/>
      <use xlink:href="#DejaVuSans-20" transform="translate(123.974609 0)"/>
      <use xlink:href="#DejaVuSans-68" transform="translate(155.761719 0)"/>
      <use xlink:href="#DejaVuSans-69" transform="translate(219.140625 0)"/>
      <use xlink:href="#DejaVuSans-73" transform="translate(246.923828 0)"/>
      <use xlink:href="#DejaVuSans-74" transform="translate(299.023438 0)"/>
      <use xlink:href="#DejaVuSans-6f" transform="translate(338.232422 0)"/>
      <use xlink:href="#DejaVuSans-72" transform="translate(399.414062 0)"/>
      <use xlink:href="#DejaVuSans-69" transform="translate(440.527344 0)"/>
      <use xlink:href="#DejaVuSans-63" transform="translate(468.310547 0)"/>
      <use xlink:href="#DejaVuSans-61" transform="translate(523.291016 0)"/>
      <use xlink:href="#DejaVuSans-6c" transform="translate(584.570312 0)"/>
      <use xlink:href="#DejaVuSans-20" transform="translate(612.353516 0)"/>
      <use xlink:href="#DejaVuSans-77" transform="translate(644.140625 0)"/>
      <use xlink:href="#DejaVuSans-72" transform="translate(725.927734 0)"/>
      <use xlink:href="#DejaVuSans-69" transform="translate(767.041016 0)"/>
      <use xlink:href="#DejaVuSans-74" transform="translate(794.824219 0)"/>
      <use xlink:href="#DejaVuSans-65" transform="translate(834.033203 0)"/>
      <use xlink:href="#DejaVuSans-73" transform="translate(895.556641 0)"/>
     </g>
    </g>
    <g id="line2d_31">
     <defs>
      <path id="mf41b960521" d="M -3 3 
L 3 3 
L 3 -3 
L -3 -3 
z
" style="stroke: #606060; stroke-linejoin: miter"/>
     </defs>
     <g>
      <use xlink:href="#mf41b960521" x="174.584898" y="43.019687" style="fill: #ffffff; stroke: #606060; stroke-linejoin: miter"/>
     </g>
    </g>
    <g id="text_12">
     <!-- Latest historical write -->
     <g transform="translate(188.984898 45.819687) scale(0.08 -0.08)">
      <defs>
       <path id="DejaVuSans-4c" d="M 628 4666 
L 1259 4666 
L 1259 531 
L 3531 531 
L 3531 0 
L 628 0 
L 628 4666 
z
" transform="scale(0.015625)"/>
      </defs>
      <use xlink:href="#DejaVuSans-4c"/>
      <use xlink:href="#DejaVuSans-61" transform="translate(55.712891 0)"/>
      <use xlink:href="#DejaVuSans-74" transform="translate(116.992188 0)"/>
      <use xlink:href="#DejaVuSans-65" transform="translate(156.201172 0)"/>
      <use xlink:href="#DejaVuSans-73" transform="translate(217.724609 0)"/>
      <use xlink:href="#DejaVuSans-74" transform="translate(269.824219 0)"/>
      <use xlink:href="#DejaVuSans-20" transform="translate(309.033203 0)"/>
      <use xlink:href="#DejaVuSans-68" transform="translate(340.820312 0)"/>
      <use xlink:href="#DejaVuSans-69" transform="translate(404.199219 0)"/>
      <use xlink:href="#DejaVuSans-73" transform="translate(431.982422 0)"/>
      <use xlink:href="#DejaVuSans-74" transform="translate(484.082031 0)"/>
      <use xlink:href="#DejaVuSans-6f" transform="translate(523.291016 0)"/>
      <use xlink:href="#DejaVuSans-72" transform="translate(584.472656 0)"/>
      <use xlink:href="#DejaVuSans-69" transform="translate(625.585938 0)"/>
      <use xlink:href="#DejaVuSans-63" transform="translate(653.369141 0)"/>
      <use xlink:href="#DejaVuSans-61" transform="translate(708.349609 0)"/>
      <use xlink:href="#DejaVuSans-6c" transform="translate(769.628906 0)"/>
      <use xlink:href="#DejaVuSans-20" transform="translate(797.412109 0)"/>
      <use xlink:href="#DejaVuSans-77" transform="translate(829.199219 0)"/>
      <use xlink:href="#DejaVuSans-72" transform="translate(910.986328 0)"/>
      <use xlink:href="#DejaVuSans-69" transform="translate(952.099609 0)"/>
      <use xlink:href="#DejaVuSans-74" transform="translate(979.882812 0)"/>
      <use xlink:href="#DejaVuSans-65" transform="translate(1019.091797 0)"/>
     </g>
    </g>
   </g>
  </g>
  <g id="axes_2">
   <g id="patch_5">
    <path d="M 350.730148 195.318437 
L 601.176238 195.318437 
L 601.176238 20.798437 
L 350.730148 20.798437 
z
" style="fill: #ffffff"/>
   </g>
   <g id="matplotlib.axis_3">
    <g id="xtick_3">
     <g id="line2d_32">
      <g>
       <use xlink:href="#m445dd571c8" x="416.323172" y="195.318437" style="stroke: #000000; stroke-width: 0.8"/>
      </g>
     </g>
     <g id="text_13">
      <!-- Uniform A -->
      <g transform="translate(391.438797 209.916875) scale(0.1 -0.1)">
       <use xlink:href="#DejaVuSans-55"/>
       <use xlink:href="#DejaVuSans-6e" transform="translate(73.193359 0)"/>
       <use xlink:href="#DejaVuSans-69" transform="translate(136.572266 0)"/>
       <use xlink:href="#DejaVuSans-66" transform="translate(164.355469 0)"/>
       <use xlink:href="#DejaVuSans-6f" transform="translate(199.560547 0)"/>
       <use xlink:href="#DejaVuSans-72" transform="translate(260.742188 0)"/>
       <use xlink:href="#DejaVuSans-6d" transform="translate(300.105469 0)"/>
       <use xlink:href="#DejaVuSans-20" transform="translate(397.517578 0)"/>
       <use xlink:href="#DejaVuSans-41" transform="translate(429.304688 0)"/>
      </g>
     </g>
    </g>
    <g id="xtick_4">
     <g id="line2d_33">
      <g>
       <use xlink:href="#m445dd571c8" x="535.583214" y="195.318437" style="stroke: #000000; stroke-width: 0.8"/>
      </g>
     </g>
     <g id="text_14">
      <!-- Routed R -->
      <g transform="translate(512.831652 209.916875) scale(0.1 -0.1)">
       <use xlink:href="#DejaVuSans-52"/>
       <use xlink:href="#DejaVuSans-6f" transform="translate(64.982422 0)"/>
       <use xlink:href="#DejaVuSans-75" transform="translate(126.164062 0)"/>
       <use xlink:href="#DejaVuSans-74" transform="translate(189.542969 0)"/>
       <use xlink:href="#DejaVuSans-65" transform="translate(228.751953 0)"/>
       <use xlink:href="#DejaVuSans-64" transform="translate(290.275391 0)"/>
       <use xlink:href="#DejaVuSans-20" transform="translate(353.751953 0)"/>
       <use xlink:href="#DejaVuSans-52" transform="translate(385.539062 0)"/>
      </g>
     </g>
    </g>
   </g>
   <g id="matplotlib.axis_4">
    <g id="ytick_7">
     <g id="line2d_34">
      <path d="M 350.730148 184.504457 
L 601.176238 184.504457 
" clip-path="url(#pc17b26444b)" style="fill: none; stroke: #e8e8e8; stroke-width: 0.5; stroke-linecap: square"/>
     </g>
     <g id="line2d_35">
      <g>
       <use xlink:href="#maa0bf13b11" x="350.730148" y="184.504457" style="stroke: #000000; stroke-width: 0.8"/>
      </g>
     </g>
     <g id="text_15">
      <!-- −3.0 -->
      <g transform="translate(319.447336 188.303675) scale(0.1 -0.1)">
       <defs>
        <path id="DejaVuSans-2e" d="M 684 794 
L 1344 794 
L 1344 0 
L 684 0 
L 684 794 
z
" transform="scale(0.015625)"/>
       </defs>
       <use xlink:href="#DejaVuSans-2212"/>
       <use xlink:href="#DejaVuSans-33" transform="translate(83.789062 0)"/>
       <use xlink:href="#DejaVuSans-2e" transform="translate(147.412109 0)"/>
       <use xlink:href="#DejaVuSans-30" transform="translate(179.199219 0)"/>
      </g>
     </g>
    </g>
    <g id="ytick_8">
     <g id="line2d_36">
      <path d="M 350.730148 161.958722 
L 601.176238 161.958722 
" clip-path="url(#pc17b26444b)" style="fill: none; stroke: #e8e8e8; stroke-width: 0.5; stroke-linecap: square"/>
     </g>
     <g id="line2d_37">
      <g>
       <use xlink:href="#maa0bf13b11" x="350.730148" y="161.958722" style="stroke: #000000; stroke-width: 0.8"/>
      </g>
     </g>
     <g id="text_16">
      <!-- −2.5 -->
      <g transform="translate(319.447336 165.757941) scale(0.1 -0.1)">
       <defs>
        <path id="DejaVuSans-35" d="M 691 4666 
L 3169 4666 
L 3169 4134 
L 1269 4134 
L 1269 2991 
Q 1406 3038 1543 3061 
Q 1681 3084 1819 3084 
Q 2600 3084 3056 2656 
Q 3513 2228 3513 1497 
Q 3513 744 3044 326 
Q 2575 -91 1722 -91 
Q 1428 -91 1123 -41 
Q 819 9 494 109 
L 494 744 
Q 775 591 1075 516 
Q 1375 441 1709 441 
Q 2250 441 2565 725 
Q 2881 1009 2881 1497 
Q 2881 1984 2565 2268 
Q 2250 2553 1709 2553 
Q 1456 2553 1204 2497 
Q 953 2441 691 2322 
L 691 4666 
z
" transform="scale(0.015625)"/>
       </defs>
       <use xlink:href="#DejaVuSans-2212"/>
       <use xlink:href="#DejaVuSans-32" transform="translate(83.789062 0)"/>
       <use xlink:href="#DejaVuSans-2e" transform="translate(147.412109 0)"/>
       <use xlink:href="#DejaVuSans-35" transform="translate(179.199219 0)"/>
      </g>
     </g>
    </g>
    <g id="ytick_9">
     <g id="line2d_38">
      <path d="M 350.730148 139.412987 
L 601.176238 139.412987 
" clip-path="url(#pc17b26444b)" style="fill: none; stroke: #e8e8e8; stroke-width: 0.5; stroke-linecap: square"/>
     </g>
     <g id="line2d_39">
      <g>
       <use xlink:href="#maa0bf13b11" x="350.730148" y="139.412987" style="stroke: #000000; stroke-width: 0.8"/>
      </g>
     </g>
     <g id="text_17">
      <!-- −2.0 -->
      <g transform="translate(319.447336 143.212206) scale(0.1 -0.1)">
       <use xlink:href="#DejaVuSans-2212"/>
       <use xlink:href="#DejaVuSans-32" transform="translate(83.789062 0)"/>
       <use xlink:href="#DejaVuSans-2e" transform="translate(147.412109 0)"/>
       <use xlink:href="#DejaVuSans-30" transform="translate(179.199219 0)"/>
      </g>
     </g>
    </g>
    <g id="ytick_10">
     <g id="line2d_40">
      <path d="M 350.730148 116.867253 
L 601.176238 116.867253 
" clip-path="url(#pc17b26444b)" style="fill: none; stroke: #e8e8e8; stroke-width: 0.5; stroke-linecap: square"/>
     </g>
     <g id="line2d_41">
      <g>
       <use xlink:href="#maa0bf13b11" x="350.730148" y="116.867253" style="stroke: #000000; stroke-width: 0.8"/>
      </g>
     </g>
     <g id="text_18">
      <!-- −1.5 -->
      <g transform="translate(319.447336 120.666471) scale(0.1 -0.1)">
       <use xlink:href="#DejaVuSans-2212"/>
       <use xlink:href="#DejaVuSans-31" transform="translate(83.789062 0)"/>
       <use xlink:href="#DejaVuSans-2e" transform="translate(147.412109 0)"/>
       <use xlink:href="#DejaVuSans-35" transform="translate(179.199219 0)"/>
      </g>
     </g>
    </g>
    <g id="ytick_11">
     <g id="line2d_42">
      <path d="M 350.730148 94.321518 
L 601.176238 94.321518 
" clip-path="url(#pc17b26444b)" style="fill: none; stroke: #e8e8e8; stroke-width: 0.5; stroke-linecap: square"/>
     </g>
     <g id="line2d_43">
      <g>
       <use xlink:href="#maa0bf13b11" x="350.730148" y="94.321518" style="stroke: #000000; stroke-width: 0.8"/>
      </g>
     </g>
     <g id="text_19">
      <!-- −1.0 -->
      <g transform="translate(319.447336 98.120737) scale(0.1 -0.1)">
       <use xlink:href="#DejaVuSans-2212"/>
       <use xlink:href="#DejaVuSans-31" transform="translate(83.789062 0)"/>
       <use xlink:href="#DejaVuSans-2e" transform="translate(147.412109 0)"/>
       <use xlink:href="#DejaVuSans-30" transform="translate(179.199219 0)"/>
      </g>
     </g>
    </g>
    <g id="ytick_12">
     <g id="line2d_44">
      <path d="M 350.730148 71.775783 
L 601.176238 71.775783 
" clip-path="url(#pc17b26444b)" style="fill: none; stroke: #e8e8e8; stroke-width: 0.5; stroke-linecap: square"/>
     </g>
     <g id="line2d_45">
      <g>
       <use xlink:href="#maa0bf13b11" x="350.730148" y="71.775783" style="stroke: #000000; stroke-width: 0.8"/>
      </g>
     </g>
     <g id="text_20">
      <!-- −0.5 -->
      <g transform="translate(319.447336 75.575002) scale(0.1 -0.1)">
       <use xlink:href="#DejaVuSans-2212"/>
       <use xlink:href="#DejaVuSans-30" transform="translate(83.789062 0)"/>
       <use xlink:href="#DejaVuSans-2e" transform="translate(147.412109 0)"/>
       <use xlink:href="#DejaVuSans-35" transform="translate(179.199219 0)"/>
      </g>
     </g>
    </g>
    <g id="ytick_13">
     <g id="line2d_46">
      <path d="M 350.730148 49.230049 
L 601.176238 49.230049 
" clip-path="url(#pc17b26444b)" style="fill: none; stroke: #e8e8e8; stroke-width: 0.5; stroke-linecap: square"/>
     </g>
     <g id="line2d_47">
      <g>
       <use xlink:href="#maa0bf13b11" x="350.730148" y="49.230049" style="stroke: #000000; stroke-width: 0.8"/>
      </g>
     </g>
     <g id="text_21">
      <!-- 0.0 -->
      <g transform="translate(327.827023 53.029267) scale(0.1 -0.1)">
       <use xlink:href="#DejaVuSans-30"/>
       <use xlink:href="#DejaVuSans-2e" transform="translate(63.623047 0)"/>
       <use xlink:href="#DejaVuSans-30" transform="translate(95.410156 0)"/>
      </g>
     </g>
    </g>
    <g id="ytick_14">
     <g id="line2d_48">
      <path d="M 350.730148 26.684314 
L 601.176238 26.684314 
" clip-path="url(#pc17b26444b)" style="fill: none; stroke: #e8e8e8; stroke-width: 0.5; stroke-linecap: square"/>
     </g>
     <g id="line2d_49">
      <g>
       <use xlink:href="#maa0bf13b11" x="350.730148" y="26.684314" style="stroke: #000000; stroke-width: 0.8"/>
      </g>
     </g>
     <g id="text_22">
      <!-- 0.5 -->
      <g transform="translate(327.827023 30.483533) scale(0.1 -0.1)">
       <use xlink:href="#DejaVuSans-30"/>
       <use xlink:href="#DejaVuSans-2e" transform="translate(63.623047 0)"/>
       <use xlink:href="#DejaVuSans-35" transform="translate(95.410156 0)"/>
      </g>
     </g>
    </g>
    <g id="text_23">
     <!-- Paired dense vIoU difference (pp) -->
     <g transform="translate(313.367648 191.529531) rotate(-90) scale(0.1 -0.1)">
      <defs>
       <path id="DejaVuSans-50" d="M 1259 4147 
L 1259 2394 
L 2053 2394 
Q 2494 2394 2734 2622 
Q 2975 2850 2975 3272 
Q 2975 3691 2734 3919 
Q 2494 4147 2053 4147 
L 1259 4147 
z
M 628 4666 
L 2053 4666 
Q 2838 4666 3239 4311 
Q 3641 3956 3641 3272 
Q 3641 2581 3239 2228 
Q 2838 1875 2053 1875 
L 1259 1875 
L 1259 0 
L 628 0 
L 628 4666 
z
" transform="scale(0.015625)"/>
      </defs>
      <use xlink:href="#DejaVuSans-50"/>
      <use xlink:href="#DejaVuSans-61" transform="translate(55.802734 0)"/>
      <use xlink:href="#DejaVuSans-69" transform="translate(117.082031 0)"/>
      <use xlink:href="#DejaVuSans-72" transform="translate(144.865234 0)"/>
      <use xlink:href="#DejaVuSans-65" transform="translate(183.728516 0)"/>
      <use xlink:href="#DejaVuSans-64" transform="translate(245.251953 0)"/>
      <use xlink:href="#DejaVuSans-20" transform="translate(308.728516 0)"/>
      <use xlink:href="#DejaVuSans-64" transform="translate(340.515625 0)"/>
      <use xlink:href="#DejaVuSans-65" transform="translate(403.992188 0)"/>
      <use xlink:href="#DejaVuSans-6e" transform="translate(465.515625 0)"/>
      <use xlink:href="#DejaVuSans-73" transform="translate(528.894531 0)"/>
      <use xlink:href="#DejaVuSans-65" transform="translate(580.994141 0)"/>
      <use xlink:href="#DejaVuSans-20" transform="translate(642.517578 0)"/>
      <use xlink:href="#DejaVuSans-76" transform="translate(674.304688 0)"/>
      <use xlink:href="#DejaVuSans-49" transform="translate(733.484375 0)"/>
      <use xlink:href="#DejaVuSans-6f" transform="translate(762.976562 0)"/>
      <use xlink:href="#DejaVuSans-55" transform="translate(824.158203 0)"/>
      <use xlink:href="#DejaVuSans-20" transform="translate(897.351562 0)"/>
      <use xlink:href="#DejaVuSans-64" transform="translate(929.138672 0)"/>
      <use xlink:href="#DejaVuSans-69" transform="translate(992.615234 0)"/>
      <use xlink:href="#DejaVuSans-66" transform="translate(1020.398438 0)"/>
      <use xlink:href="#DejaVuSans-66" transform="translate(1055.603516 0)"/>
      <use xlink:href="#DejaVuSans-65" transform="translate(1090.808594 0)"/>
      <use xlink:href="#DejaVuSans-72" transform="translate(1152.332031 0)"/>
      <use xlink:href="#DejaVuSans-65" transform="translate(1191.195312 0)"/>
      <use xlink:href="#DejaVuSans-6e" transform="translate(1252.71875 0)"/>
      <use xlink:href="#DejaVuSans-63" transform="translate(1316.097656 0)"/>
      <use xlink:href="#DejaVuSans-65" transform="translate(1371.078125 0)"/>
      <use xlink:href="#DejaVuSans-20" transform="translate(1432.601562 0)"/>
      <use xlink:href="#DejaVuSans-28" transform="translate(1464.388672 0)"/>
      <use xlink:href="#DejaVuSans-70" transform="translate(1503.402344 0)"/>
      <use xlink:href="#DejaVuSans-70" transform="translate(1566.878906 0)"/>
      <use xlink:href="#DejaVuSans-29" transform="translate(1630.355469 0)"/>
     </g>
    </g>
   </g>
   <g id="LineCollection_5">
    <path d="M 404.397168 184.837369 
L 404.397168 36.704571 
" clip-path="url(#pc17b26444b)" style="fill: none; stroke: #3675ad; stroke-width: 1.5"/>
   </g>
   <g id="line2d_50">
    <g clip-path="url(#pc17b26444b)">
     <use xlink:href="#m34c8c88296" x="404.397168" y="184.837369" style="fill: #3675ad; stroke: #3675ad"/>
    </g>
   </g>
   <g id="line2d_51">
    <g clip-path="url(#pc17b26444b)">
     <use xlink:href="#m34c8c88296" x="404.397168" y="36.704571" style="fill: #3675ad; stroke: #3675ad"/>
    </g>
   </g>
   <g id="LineCollection_6">
    <path d="M 428.249176 184.837369 
L 428.249176 36.704571 
" clip-path="url(#pc17b26444b)" style="fill: none; stroke: #3675ad; stroke-width: 1.5"/>
   </g>
   <g id="line2d_52">
    <g clip-path="url(#pc17b26444b)">
     <use xlink:href="#m34c8c88296" x="428.249176" y="184.837369" style="fill: #3675ad; stroke: #3675ad"/>
    </g>
   </g>
   <g id="line2d_53">
    <g clip-path="url(#pc17b26444b)">
     <use xlink:href="#m34c8c88296" x="428.249176" y="36.704571" style="fill: #3675ad; stroke: #3675ad"/>
    </g>
   </g>
   <g id="LineCollection_7">
    <path d="M 523.65721 187.38571 
L 523.65721 28.731165 
" clip-path="url(#pc17b26444b)" style="fill: none; stroke: #d17a35; stroke-width: 1.5"/>
   </g>
   <g id="line2d_54">
    <g clip-path="url(#pc17b26444b)">
     <use xlink:href="#mf5d1b7cdae" x="523.65721" y="187.38571" style="fill: #d17a35; stroke: #d17a35"/>
    </g>
   </g>
   <g id="line2d_55">
    <g clip-path="url(#pc17b26444b)">
     <use xlink:href="#mf5d1b7cdae" x="523.65721" y="28.731165" style="fill: #d17a35; stroke: #d17a35"/>
    </g>
   </g>
   <g id="LineCollection_8">
    <path d="M 547.509219 187.38571 
L 547.509219 28.731165 
" clip-path="url(#pc17b26444b)" style="fill: none; stroke: #d17a35; stroke-width: 1.5"/>
   </g>
   <g id="line2d_56">
    <g clip-path="url(#pc17b26444b)">
     <use xlink:href="#mf5d1b7cdae" x="547.509219" y="187.38571" style="fill: #d17a35; stroke: #d17a35"/>
    </g>
   </g>
   <g id="line2d_57">
    <g clip-path="url(#pc17b26444b)">
     <use xlink:href="#mf5d1b7cdae" x="547.509219" y="28.731165" style="fill: #d17a35; stroke: #d17a35"/>
    </g>
   </g>
   <g id="line2d_58">
    <path d="M 350.730148 49.230049 
L 601.176238 49.230049 
" clip-path="url(#pc17b26444b)" style="fill: none; stroke-dasharray: 2.96,1.28; stroke-dashoffset: 0; stroke: #8b8b8b; stroke-width: 0.8"/>
   </g>
   <g id="line2d_59"/>
   <g id="line2d_60"/>
   <g id="line2d_61">
    <g clip-path="url(#pc17b26444b)">
     <use xlink:href="#m618cda869f" x="404.397168" y="91.700067" style="fill: #3675ad; stroke: #3675ad"/>
    </g>
   </g>
   <g id="line2d_62">
    <g clip-path="url(#pc17b26444b)">
     <use xlink:href="#m66bce85cf4" x="428.249176" y="91.700067" style="fill: #ffffff; stroke: #3675ad; stroke-linejoin: miter"/>
    </g>
   </g>
   <g id="line2d_63">
    <g clip-path="url(#pc17b26444b)">
     <use xlink:href="#mb7a99e16d8" x="523.65721" y="90.057677" style="fill: #d17a35; stroke: #d17a35"/>
    </g>
   </g>
   <g id="line2d_64">
    <g clip-path="url(#pc17b26444b)">
     <use xlink:href="#m5584735e5b" x="547.509219" y="90.057677" style="fill: #ffffff; stroke: #d17a35; stroke-linejoin: miter"/>
    </g>
   </g>
   <g id="patch_6">
    <path d="M 350.730148 195.318437 
L 350.730148 20.798437 
" style="fill: none; stroke: #000000; stroke-width: 0.8; stroke-linejoin: miter; stroke-linecap: square"/>
   </g>
   <g id="patch_7">
    <path d="M 350.730148 195.318437 
L 601.176238 195.318437 
" style="fill: none; stroke: #000000; stroke-width: 0.8; stroke-linejoin: miter; stroke-linecap: square"/>
   </g>
   <g id="text_24">
    <!-- (b) Latest minus All -->
    <g transform="translate(350.730148 14.798437) scale(0.1 -0.1)">
     <defs>
      <path id="DejaVuSans-Bold-62" d="M 2400 722 
Q 2759 722 2948 984 
Q 3138 1247 3138 1747 
Q 3138 2247 2948 2509 
Q 2759 2772 2400 2772 
Q 2041 2772 1848 2508 
Q 1656 2244 1656 1747 
Q 1656 1250 1848 986 
Q 2041 722 2400 722 
z
M 1656 2988 
Q 1888 3294 2169 3439 
Q 2450 3584 2816 3584 
Q 3463 3584 3878 3070 
Q 4294 2556 4294 1747 
Q 4294 938 3878 423 
Q 3463 -91 2816 -91 
Q 2450 -91 2169 54 
Q 1888 200 1656 506 
L 1656 0 
L 538 0 
L 538 4863 
L 1656 4863 
L 1656 2988 
z
" transform="scale(0.015625)"/>
      <path id="DejaVuSans-Bold-4c" d="M 588 4666 
L 1791 4666 
L 1791 909 
L 3903 909 
L 3903 0 
L 588 0 
L 588 4666 
z
" transform="scale(0.015625)"/>
      <path id="DejaVuSans-Bold-6d" d="M 3781 2919 
Q 3994 3244 4286 3414 
Q 4578 3584 4928 3584 
Q 5531 3584 5847 3212 
Q 6163 2841 6163 2131 
L 6163 0 
L 5038 0 
L 5038 1825 
Q 5041 1866 5042 1909 
Q 5044 1953 5044 2034 
Q 5044 2406 4934 2573 
Q 4825 2741 4581 2741 
Q 4263 2741 4089 2478 
Q 3916 2216 3909 1719 
L 3909 0 
L 2784 0 
L 2784 1825 
Q 2784 2406 2684 2573 
Q 2584 2741 2328 2741 
Q 2006 2741 1831 2477 
Q 1656 2213 1656 1722 
L 1656 0 
L 531 0 
L 531 3500 
L 1656 3500 
L 1656 2988 
Q 1863 3284 2130 3434 
Q 2397 3584 2719 3584 
Q 3081 3584 3359 3409 
Q 3638 3234 3781 2919 
z
" transform="scale(0.015625)"/>
      <path id="DejaVuSans-Bold-41" d="M 3419 850 
L 1538 850 
L 1241 0 
L 31 0 
L 1759 4666 
L 3194 4666 
L 4922 0 
L 3713 0 
L 3419 850 
z
M 1838 1716 
L 3116 1716 
L 2478 3572 
L 1838 1716 
z
" transform="scale(0.015625)"/>
     </defs>
     <use xlink:href="#DejaVuSans-Bold-28"/>
     <use xlink:href="#DejaVuSans-Bold-62" transform="translate(45.703125 0)"/>
     <use xlink:href="#DejaVuSans-Bold-29" transform="translate(117.285156 0)"/>
     <use xlink:href="#DejaVuSans-Bold-20" transform="translate(162.988281 0)"/>
     <use xlink:href="#DejaVuSans-Bold-4c" transform="translate(197.802734 0)"/>
     <use xlink:href="#DejaVuSans-Bold-61" transform="translate(261.523438 0)"/>
     <use xlink:href="#DejaVuSans-Bold-74" transform="translate(329.003906 0)"/>
     <use xlink:href="#DejaVuSans-Bold-65" transform="translate(376.806641 0)"/>
     <use xlink:href="#DejaVuSans-Bold-73" transform="translate(444.628906 0)"/>
     <use xlink:href="#DejaVuSans-Bold-74" transform="translate(504.150391 0)"/>
     <use xlink:href="#DejaVuSans-Bold-20" transform="translate(551.953125 0)"/>
     <use xlink:href="#DejaVuSans-Bold-6d" transform="translate(586.767578 0)"/>
     <use xlink:href="#DejaVuSans-Bold-69" transform="translate(690.966797 0)"/>
     <use xlink:href="#DejaVuSans-Bold-6e" transform="translate(725.244141 0)"/>
     <use xlink:href="#DejaVuSans-Bold-75" transform="translate(796.435547 0)"/>
     <use xlink:href="#DejaVuSans-Bold-73" transform="translate(867.626953 0)"/>
     <use xlink:href="#DejaVuSans-Bold-20" transform="translate(927.148438 0)"/>
     <use xlink:href="#DejaVuSans-Bold-41" transform="translate(961.962891 0)"/>
     <use xlink:href="#DejaVuSans-Bold-6c" transform="translate(1039.355469 0)"/>
     <use xlink:href="#DejaVuSans-Bold-6c" transform="translate(1073.632812 0)"/>
    </g>
   </g>
   <g id="legend_2">
    <g id="line2d_65">
     <g>
      <use xlink:href="#m5c8e49aa44" x="480.278738" y="101.594687" style="fill: #606060; stroke: #606060"/>
     </g>
    </g>
    <g id="text_25">
     <!-- Native temporal interval -->
     <g transform="translate(494.678738 104.394687) scale(0.08 -0.08)">
      <defs>
       <path id="DejaVuSans-4e" d="M 628 4666 
L 1478 4666 
L 3547 763 
L 3547 4666 
L 4159 4666 
L 4159 0 
L 3309 0 
L 1241 3903 
L 1241 0 
L 628 0 
L 628 4666 
z
" transform="scale(0.015625)"/>
      </defs>
      <use xlink:href="#DejaVuSans-4e"/>
      <use xlink:href="#DejaVuSans-61" transform="translate(74.804688 0)"/>
      <use xlink:href="#DejaVuSans-74" transform="translate(136.083984 0)"/>
      <use xlink:href="#DejaVuSans-69" transform="translate(175.292969 0)"/>
      <use xlink:href="#DejaVuSans-76" transform="translate(203.076172 0)"/>
      <use xlink:href="#DejaVuSans-65" transform="translate(262.255859 0)"/>
      <use xlink:href="#DejaVuSans-20" transform="translate(323.779297 0)"/>
      <use xlink:href="#DejaVuSans-74" transform="translate(355.566406 0)"/>
      <use xlink:href="#DejaVuSans-65" transform="translate(394.775391 0)"/>
      <use xlink:href="#DejaVuSans-6d" transform="translate(456.298828 0)"/>
      <use xlink:href="#DejaVuSans-70" transform="translate(553.710938 0)"/>
      <use xlink:href="#DejaVuSans-6f" transform="translate(617.1875 0)"/>
      <use xlink:href="#DejaVuSans-72" transform="translate(678.369141 0)"/>
      <use xlink:href="#DejaVuSans-61" transform="translate(719.482422 0)"/>
      <use xlink:href="#DejaVuSans-6c" transform="translate(780.761719 0)"/>
      <use xlink:href="#DejaVuSans-20" transform="translate(808.544922 0)"/>
      <use xlink:href="#DejaVuSans-69" transform="translate(840.332031 0)"/>
      <use xlink:href="#DejaVuSans-6e" transform="translate(868.115234 0)"/>
      <use xlink:href="#DejaVuSans-74" transform="translate(931.494141 0)"/>
      <use xlink:href="#DejaVuSans-65" transform="translate(970.703125 0)"/>
      <use xlink:href="#DejaVuSans-72" transform="translate(1032.226562 0)"/>
      <use xlink:href="#DejaVuSans-76" transform="translate(1073.339844 0)"/>
      <use xlink:href="#DejaVuSans-61" transform="translate(1132.519531 0)"/>
      <use xlink:href="#DejaVuSans-6c" transform="translate(1193.798828 0)"/>
     </g>
    </g>
    <g id="line2d_66">
     <g>
      <use xlink:href="#mf41b960521" x="480.278738" y="113.337187" style="fill: #ffffff; stroke: #606060; stroke-linejoin: miter"/>
     </g>
    </g>
    <g id="text_26">
     <!-- Source temporal interval -->
     <g transform="translate(494.678738 116.137187) scale(0.08 -0.08)">
      <defs>
       <path id="DejaVuSans-53" d="M 3425 4513 
L 3425 3897 
Q 3066 4069 2747 4153 
Q 2428 4238 2131 4238 
Q 1616 4238 1336 4038 
Q 1056 3838 1056 3469 
Q 1056 3159 1242 3001 
Q 1428 2844 1947 2747 
L 2328 2669 
Q 3034 2534 3370 2195 
Q 3706 1856 3706 1288 
Q 3706 609 3251 259 
Q 2797 -91 1919 -91 
Q 1588 -91 1214 -16 
Q 841 59 441 206 
L 441 856 
Q 825 641 1194 531 
Q 1563 422 1919 422 
Q 2459 422 2753 634 
Q 3047 847 3047 1241 
Q 3047 1584 2836 1778 
Q 2625 1972 2144 2069 
L 1759 2144 
Q 1053 2284 737 2584 
Q 422 2884 422 3419 
Q 422 4038 858 4394 
Q 1294 4750 2059 4750 
Q 2388 4750 2728 4690 
Q 3069 4631 3425 4513 
z
" transform="scale(0.015625)"/>
      </defs>
      <use xlink:href="#DejaVuSans-53"/>
      <use xlink:href="#DejaVuSans-6f" transform="translate(63.476562 0)"/>
      <use xlink:href="#DejaVuSans-75" transform="translate(124.658203 0)"/>
      <use xlink:href="#DejaVuSans-72" transform="translate(188.037109 0)"/>
      <use xlink:href="#DejaVuSans-63" transform="translate(226.900391 0)"/>
      <use xlink:href="#DejaVuSans-65" transform="translate(281.880859 0)"/>
      <use xlink:href="#DejaVuSans-20" transform="translate(343.404297 0)"/>
      <use xlink:href="#DejaVuSans-74" transform="translate(375.191406 0)"/>
      <use xlink:href="#DejaVuSans-65" transform="translate(414.400391 0)"/>
      <use xlink:href="#DejaVuSans-6d" transform="translate(475.923828 0)"/>
      <use xlink:href="#DejaVuSans-70" transform="translate(573.335938 0)"/>
      <use xlink:href="#DejaVuSans-6f" transform="translate(636.8125 0)"/>
      <use xlink:href="#DejaVuSans-72" transform="translate(697.994141 0)"/>
      <use xlink:href="#DejaVuSans-61" transform="translate(739.107422 0)"/>
      <use xlink:href="#DejaVuSans-6c" transform="translate(800.386719 0)"/>
      <use xlink:href="#DejaVuSans-20" transform="translate(828.169922 0)"/>
      <use xlink:href="#DejaVuSans-69" transform="translate(859.957031 0)"/>
      <use xlink:href="#DejaVuSans-6e" transform="translate(887.740234 0)"/>
      <use xlink:href="#DejaVuSans-74" transform="translate(951.119141 0)"/>
      <use xlink:href="#DejaVuSans-65" transform="translate(990.328125 0)"/>
      <use xlink:href="#DejaVuSans-72" transform="translate(1051.851562 0)"/>
      <use xlink:href="#DejaVuSans-76" transform="translate(1092.964844 0)"/>
      <use xlink:href="#DejaVuSans-61" transform="translate(1152.144531 0)"/>
      <use xlink:href="#DejaVuSans-6c" transform="translate(1213.423828 0)"/>
     </g>
    </g>
   </g>
  </g>
  <g id="axes_3">
   <g id="patch_8">
    <path d="M 669.275238 195.318437 
L 877.980313 195.318437 
L 877.980313 20.798437 
L 669.275238 20.798437 
z
" style="fill: #ffffff"/>
   </g>
   <g id="FillBetweenPolyCollection_1">
    <defs>
     <path id="mec6fa8343d" d="M 678.761832 -203.765774 
L 678.761832 -203.765774 
L 705.866387 -153.603592 
L 732.970942 -147.189166 
L 760.075498 -141.210224 
L 787.180053 -95.704093 
L 814.284608 -87.895324 
L 841.389163 -85.650665 
L 868.493718 -81.067029 
L 868.493718 -124.36652 
L 868.493718 -124.36652 
L 841.389163 -143.590282 
L 814.284608 -171.179238 
L 787.180053 -170.403036 
L 760.075498 -162.463519 
L 732.970942 -198.124309 
L 705.866387 -203.765774 
L 678.761832 -203.765774 
z
"/>
    </defs>
    <g clip-path="url(#p770e2b397c)">
     <use xlink:href="#mec6fa8343d" x="0" y="232.874687" style="fill: #3675ad; fill-opacity: 0.1"/>
    </g>
   </g>
   <g id="FillBetweenPolyCollection_2">
    <defs>
     <path id="mea36b38287" d="M 678.761832 -203.765774 
L 678.761832 -203.765774 
L 705.866387 -115.74612 
L 732.970942 -100.237602 
L 760.075498 -99.803655 
L 787.180053 -103.452691 
L 814.284608 -105.509462 
L 841.389163 -93.381212 
L 868.493718 -90.88441 
L 868.493718 -113.329076 
L 868.493718 -113.329076 
L 841.389163 -127.669152 
L 814.284608 -140.267574 
L 787.180053 -142.788921 
L 760.075498 -142.75544 
L 732.970942 -185.902371 
L 705.866387 -203.765774 
L 678.761832 -203.765774 
z
"/>
    </defs>
    <g clip-path="url(#p770e2b397c)">
     <use xlink:href="#mea36b38287" x="0" y="232.874687" style="fill: #d17a35; fill-opacity: 0.1"/>
    </g>
   </g>
   <g id="matplotlib.axis_5">
    <g id="xtick_5">
     <g id="line2d_67">
      <g>
       <use xlink:href="#m445dd571c8" x="678.761832" y="195.318437" style="stroke: #000000; stroke-width: 0.8"/>
      </g>
     </g>
     <g id="text_27">
      <!-- 1 -->
      <g transform="translate(675.580582 209.916875) scale(0.1 -0.1)">
       <use xlink:href="#DejaVuSans-31"/>
      </g>
     </g>
    </g>
    <g id="xtick_6">
     <g id="line2d_68">
      <g>
       <use xlink:href="#m445dd571c8" x="705.866387" y="195.318437" style="stroke: #000000; stroke-width: 0.8"/>
      </g>
     </g>
     <g id="text_28">
      <!-- 2 -->
      <g transform="translate(702.685137 209.916875) scale(0.1 -0.1)">
       <use xlink:href="#DejaVuSans-32"/>
      </g>
     </g>
    </g>
    <g id="xtick_7">
     <g id="line2d_69">
      <g>
       <use xlink:href="#m445dd571c8" x="760.075498" y="195.318437" style="stroke: #000000; stroke-width: 0.8"/>
      </g>
     </g>
     <g id="text_29">
      <!-- 4 -->
      <g transform="translate(756.894248 209.916875) scale(0.1 -0.1)">
       <use xlink:href="#DejaVuSans-34"/>
      </g>
     </g>
    </g>
    <g id="xtick_8">
     <g id="line2d_70">
      <g>
       <use xlink:href="#m445dd571c8" x="814.284608" y="195.318437" style="stroke: #000000; stroke-width: 0.8"/>
      </g>
     </g>
     <g id="text_30">
      <!-- 6 -->
      <g transform="translate(811.103358 209.916875) scale(0.1 -0.1)">
       <defs>
        <path id="DejaVuSans-36" d="M 2113 2584 
Q 1688 2584 1439 2293 
Q 1191 2003 1191 1497 
Q 1191 994 1439 701 
Q 1688 409 2113 409 
Q 2538 409 2786 701 
Q 3034 994 3034 1497 
Q 3034 2003 2786 2293 
Q 2538 2584 2113 2584 
z
M 3366 4563 
L 3366 3988 
Q 3128 4100 2886 4159 
Q 2644 4219 2406 4219 
Q 1781 4219 1451 3797 
Q 1122 3375 1075 2522 
Q 1259 2794 1537 2939 
Q 1816 3084 2150 3084 
Q 2853 3084 3261 2657 
Q 3669 2231 3669 1497 
Q 3669 778 3244 343 
Q 2819 -91 2113 -91 
Q 1303 -91 875 529 
Q 447 1150 447 2328 
Q 447 3434 972 4092 
Q 1497 4750 2381 4750 
Q 2619 4750 2861 4703 
Q 3103 4656 3366 4563 
z
" transform="scale(0.015625)"/>
       </defs>
       <use xlink:href="#DejaVuSans-36"/>
      </g>
     </g>
    </g>
    <g id="xtick_9">
     <g id="line2d_71">
      <g>
       <use xlink:href="#m445dd571c8" x="868.493718" y="195.318437" style="stroke: #000000; stroke-width: 0.8"/>
      </g>
     </g>
     <g id="text_31">
      <!-- 8 -->
      <g transform="translate(865.312468 209.916875) scale(0.1 -0.1)">
       <defs>
        <path id="DejaVuSans-38" d="M 2034 2216 
Q 1584 2216 1326 1975 
Q 1069 1734 1069 1313 
Q 1069 891 1326 650 
Q 1584 409 2034 409 
Q 2484 409 2743 651 
Q 3003 894 3003 1313 
Q 3003 1734 2745 1975 
Q 2488 2216 2034 2216 
z
M 1403 2484 
Q 997 2584 770 2862 
Q 544 3141 544 3541 
Q 544 4100 942 4425 
Q 1341 4750 2034 4750 
Q 2731 4750 3128 4425 
Q 3525 4100 3525 3541 
Q 3525 3141 3298 2862 
Q 3072 2584 2669 2484 
Q 3125 2378 3379 2068 
Q 3634 1759 3634 1313 
Q 3634 634 3220 271 
Q 2806 -91 2034 -91 
Q 1263 -91 848 271 
Q 434 634 434 1313 
Q 434 1759 690 2068 
Q 947 2378 1403 2484 
z
M 1172 3481 
Q 1172 3119 1398 2916 
Q 1625 2713 2034 2713 
Q 2441 2713 2670 2916 
Q 2900 3119 2900 3481 
Q 2900 3844 2670 4047 
Q 2441 4250 2034 4250 
Q 1625 4250 1398 4047 
Q 1172 3844 1172 3481 
z
" transform="scale(0.015625)"/>
       </defs>
       <use xlink:href="#DejaVuSans-38"/>
      </g>
     </g>
    </g>
    <g id="text_32">
     <!-- Number of historical expert arrivals -->
     <g transform="translate(684.828556 223.595) scale(0.1 -0.1)">
      <defs>
       <path id="DejaVuSans-62" d="M 3116 1747 
Q 3116 2381 2855 2742 
Q 2594 3103 2138 3103 
Q 1681 3103 1420 2742 
Q 1159 2381 1159 1747 
Q 1159 1113 1420 752 
Q 1681 391 2138 391 
Q 2594 391 2855 752 
Q 3116 1113 3116 1747 
z
M 1159 2969 
Q 1341 3281 1617 3432 
Q 1894 3584 2278 3584 
Q 2916 3584 3314 3078 
Q 3713 2572 3713 1747 
Q 3713 922 3314 415 
Q 2916 -91 2278 -91 
Q 1894 -91 1617 61 
Q 1341 213 1159 525 
L 1159 0 
L 581 0 
L 581 4863 
L 1159 4863 
L 1159 2969 
z
" transform="scale(0.015625)"/>
       <path id="DejaVuSans-78" d="M 3513 3500 
L 2247 1797 
L 3578 0 
L 2900 0 
L 1881 1375 
L 863 0 
L 184 0 
L 1544 1831 
L 300 3500 
L 978 3500 
L 1906 2253 
L 2834 3500 
L 3513 3500 
z
" transform="scale(0.015625)"/>
      </defs>
      <use xlink:href="#DejaVuSans-4e"/>
      <use xlink:href="#DejaVuSans-75" transform="translate(74.804688 0)"/>
      <use xlink:href="#DejaVuSans-6d" transform="translate(138.183594 0)"/>
      <use xlink:href="#DejaVuSans-62" transform="translate(235.595703 0)"/>
      <use xlink:href="#DejaVuSans-65" transform="translate(299.072266 0)"/>
      <use xlink:href="#DejaVuSans-72" transform="translate(360.595703 0)"/>
      <use xlink:href="#DejaVuSans-20" transform="translate(401.708984 0)"/>
      <use xlink:href="#DejaVuSans-6f" transform="translate(433.496094 0)"/>
      <use xlink:href="#DejaVuSans-66" transform="translate(494.677734 0)"/>
      <use xlink:href="#DejaVuSans-20" transform="translate(529.882812 0)"/>
      <use xlink:href="#DejaVuSans-68" transform="translate(561.669922 0)"/>
      <use xlink:href="#DejaVuSans-69" transform="translate(625.048828 0)"/>
      <use xlink:href="#DejaVuSans-73" transform="translate(652.832031 0)"/>
      <use xlink:href="#DejaVuSans-74" transform="translate(704.931641 0)"/>
      <use xlink:href="#DejaVuSans-6f" transform="translate(744.140625 0)"/>
      <use xlink:href="#DejaVuSans-72" transform="translate(805.322266 0)"/>
      <use xlink:href="#DejaVuSans-69" transform="translate(846.435547 0)"/>
      <use xlink:href="#DejaVuSans-63" transform="translate(874.21875 0)"/>
      <use xlink:href="#DejaVuSans-61" transform="translate(929.199219 0)"/>
      <use xlink:href="#DejaVuSans-6c" transform="translate(990.478516 0)"/>
      <use xlink:href="#DejaVuSans-20" transform="translate(1018.261719 0)"/>
      <use xlink:href="#DejaVuSans-65" transform="translate(1050.048828 0)"/>
      <use xlink:href="#DejaVuSans-78" transform="translate(1109.822266 0)"/>
      <use xlink:href="#DejaVuSans-70" transform="translate(1169.001953 0)"/>
      <use xlink:href="#DejaVuSans-65" transform="translate(1232.478516 0)"/>
      <use xlink:href="#DejaVuSans-72" transform="translate(1294.001953 0)"/>
      <use xlink:href="#DejaVuSans-74" transform="translate(1335.115234 0)"/>
      <use xlink:href="#DejaVuSans-20" transform="translate(1374.324219 0)"/>
      <use xlink:href="#DejaVuSans-61" transform="translate(1406.111328 0)"/>
      <use xlink:href="#DejaVuSans-72" transform="translate(1467.390625 0)"/>
      <use xlink:href="#DejaVuSans-72" transform="translate(1506.753906 0)"/>
      <use xlink:href="#DejaVuSans-69" transform="translate(1547.867188 0)"/>
      <use xlink:href="#DejaVuSans-76" transform="translate(1575.650391 0)"/>
      <use xlink:href="#DejaVuSans-61" transform="translate(1634.830078 0)"/>
      <use xlink:href="#DejaVuSans-6c" transform="translate(1696.109375 0)"/>
      <use xlink:href="#DejaVuSans-73" transform="translate(1723.892578 0)"/>
     </g>
    </g>
   </g>
   <g id="matplotlib.axis_6">
    <g id="ytick_15">
     <g id="line2d_72">
      <path d="M 669.275238 195.318437 
L 877.980313 195.318437 
" clip-path="url(#p770e2b397c)" style="fill: none; stroke: #e8e8e8; stroke-width: 0.5; stroke-linecap: square"/>
     </g>
     <g id="line2d_73">
      <g>
       <use xlink:href="#maa0bf13b11" x="669.275238" y="195.318437" style="stroke: #000000; stroke-width: 0.8"/>
      </g>
     </g>
     <g id="text_33">
      <!-- 0.0 -->
      <g transform="translate(646.372113 199.117656) scale(0.1 -0.1)">
       <use xlink:href="#DejaVuSans-30"/>
       <use xlink:href="#DejaVuSans-2e" transform="translate(63.623047 0)"/>
       <use xlink:href="#DejaVuSans-30" transform="translate(95.410156 0)"/>
      </g>
     </g>
    </g>
    <g id="ytick_16">
     <g id="line2d_74">
      <path d="M 669.275238 162.076533 
L 877.980313 162.076533 
" clip-path="url(#p770e2b397c)" style="fill: none; stroke: #e8e8e8; stroke-width: 0.5; stroke-linecap: square"/>
     </g>
     <g id="line2d_75">
      <g>
       <use xlink:href="#maa0bf13b11" x="669.275238" y="162.076533" style="stroke: #000000; stroke-width: 0.8"/>
      </g>
     </g>
     <g id="text_34">
      <!-- 0.2 -->
      <g transform="translate(646.372113 165.875751) scale(0.1 -0.1)">
       <use xlink:href="#DejaVuSans-30"/>
       <use xlink:href="#DejaVuSans-2e" transform="translate(63.623047 0)"/>
       <use xlink:href="#DejaVuSans-32" transform="translate(95.410156 0)"/>
      </g>
     </g>
    </g>
    <g id="ytick_17">
     <g id="line2d_76">
      <path d="M 669.275238 128.834628 
L 877.980313 128.834628 
" clip-path="url(#p770e2b397c)" style="fill: none; stroke: #e8e8e8; stroke-width: 0.5; stroke-linecap: square"/>
     </g>
     <g id="line2d_77">
      <g>
       <use xlink:href="#maa0bf13b11" x="669.275238" y="128.834628" style="stroke: #000000; stroke-width: 0.8"/>
      </g>
     </g>
     <g id="text_35">
      <!-- 0.4 -->
      <g transform="translate(646.372113 132.633847) scale(0.1 -0.1)">
       <use xlink:href="#DejaVuSans-30"/>
       <use xlink:href="#DejaVuSans-2e" transform="translate(63.623047 0)"/>
       <use xlink:href="#DejaVuSans-34" transform="translate(95.410156 0)"/>
      </g>
     </g>
    </g>
    <g id="ytick_18">
     <g id="line2d_78">
      <path d="M 669.275238 95.592723 
L 877.980313 95.592723 
" clip-path="url(#p770e2b397c)" style="fill: none; stroke: #e8e8e8; stroke-width: 0.5; stroke-linecap: square"/>
     </g>
     <g id="line2d_79">
      <g>
       <use xlink:href="#maa0bf13b11" x="669.275238" y="95.592723" style="stroke: #000000; stroke-width: 0.8"/>
      </g>
     </g>
     <g id="text_36">
      <!-- 0.6 -->
      <g transform="translate(646.372113 99.391942) scale(0.1 -0.1)">
       <use xlink:href="#DejaVuSans-30"/>
       <use xlink:href="#DejaVuSans-2e" transform="translate(63.623047 0)"/>
       <use xlink:href="#DejaVuSans-36" transform="translate(95.410156 0)"/>
      </g>
     </g>
    </g>
    <g id="ytick_19">
     <g id="line2d_80">
      <path d="M 669.275238 62.350818 
L 877.980313 62.350818 
" clip-path="url(#p770e2b397c)" style="fill: none; stroke: #e8e8e8; stroke-width: 0.5; stroke-linecap: square"/>
     </g>
     <g id="line2d_81">
      <g>
       <use xlink:href="#maa0bf13b11" x="669.275238" y="62.350818" style="stroke: #000000; stroke-width: 0.8"/>
      </g>
     </g>
     <g id="text_37">
      <!-- 0.8 -->
      <g transform="translate(646.372113 66.150037) scale(0.1 -0.1)">
       <use xlink:href="#DejaVuSans-30"/>
       <use xlink:href="#DejaVuSans-2e" transform="translate(63.623047 0)"/>
       <use xlink:href="#DejaVuSans-38" transform="translate(95.410156 0)"/>
      </g>
     </g>
    </g>
    <g id="ytick_20">
     <g id="line2d_82">
      <path d="M 669.275238 29.108914 
L 877.980313 29.108914 
" clip-path="url(#p770e2b397c)" style="fill: none; stroke: #e8e8e8; stroke-width: 0.5; stroke-linecap: square"/>
     </g>
     <g id="line2d_83">
      <g>
       <use xlink:href="#maa0bf13b11" x="669.275238" y="29.108914" style="stroke: #000000; stroke-width: 0.8"/>
      </g>
     </g>
     <g id="text_38">
      <!-- 1.0 -->
      <g transform="translate(646.372113 32.908132) scale(0.1 -0.1)">
       <use xlink:href="#DejaVuSans-31"/>
       <use xlink:href="#DejaVuSans-2e" transform="translate(63.623047 0)"/>
       <use xlink:href="#DejaVuSans-30" transform="translate(95.410156 0)"/>
      </g>
     </g>
    </g>
    <g id="text_39">
     <!-- $\|\sum_i\delta_i\|\,/\,\sum_i\|\delta_i\|$ -->
     <g transform="translate(632.372113 138.808437) rotate(-90) scale(0.1 -0.1)">
      <defs>
       <path id="DejaVuSans-2016" d="M 1344 4891 
L 1344 -1509 
L 813 -1509 
L 813 4891 
L 1344 4891 
z
M 2376 4891 
L 2376 -1509 
L 1845 -1509 
L 1845 4891 
L 2376 4891 
z
" transform="scale(0.015625)"/>
       <path id="DejaVuSansDisplay-2211" d="M 244 6509 
L 5803 6509 
L 5803 5656 
L 1566 5656 
L 4534 2488 
L 1469 -888 
L 5919 -888 
L 5919 -1738 
L 109 -1738 
L 109 -1078 
L 3316 2463 
L 244 5728 
L 244 6509 
z
" transform="scale(0.015625)"/>
       <path id="DejaVuSans-Oblique-69" d="M 1172 4863 
L 1747 4863 
L 1606 4134 
L 1031 4134 
L 1172 4863 
z
M 909 3500 
L 1484 3500 
L 800 0 
L 225 0 
L 909 3500 
z
" transform="scale(0.015625)"/>
       <path id="DejaVuSans-Oblique-3b4" d="M 3472 4053 
Q 3197 4272 2450 4272 
Q 1659 4272 1588 3906 
Q 1531 3619 2328 3469 
Q 2953 3353 3253 3003 
Q 3616 2581 3447 1716 
Q 3284 888 2763 400 
Q 2238 -91 1488 -91 
Q 741 -91 406 400 
Q 72 888 241 1747 
Q 363 2384 891 2900 
Q 1097 3100 1353 3213 
Q 913 3459 1000 3900 
Q 1166 4750 2544 4750 
Q 3234 4750 3566 4531 
L 3472 4053 
z
M 1753 3056 
Q 1525 2966 1306 2738 
Q 969 2384 847 1747 
Q 722 1113 919 756 
Q 1119 397 1584 397 
Q 2044 397 2381 759 
Q 2722 1122 2838 1716 
Q 2956 2338 2731 2638 
Q 2491 2959 2103 2994 
Q 1906 3013 1753 3056 
z
" transform="scale(0.015625)"/>
       <path id="DejaVuSans-2f" d="M 1625 4666 
L 2156 4666 
L 531 -594 
L 0 -594 
L 1625 4666 
z
" transform="scale(0.015625)"/>
      </defs>
      <use xlink:href="#DejaVuSans-2016" transform="translate(0 0.296875)"/>
      <use xlink:href="#DejaVuSansDisplay-2211" transform="translate(50 0.296875)"/>
      <use xlink:href="#DejaVuSans-Oblique-69" transform="translate(87 -98.798438) scale(0.7)"/>
      <use xlink:href="#DejaVuSans-Oblique-3b4" transform="translate(140.765625 0.296875)"/>
      <use xlink:href="#DejaVuSans-Oblique-69" transform="translate(201.947266 -16.109375) scale(0.7)"/>
      <use xlink:href="#DejaVuSans-2016" transform="translate(224.129883 0.296875)"/>
      <use xlink:href="#DejaVuSans-2f" transform="translate(290.365559 0.296875)"/>
      <use xlink:href="#DejaVuSansDisplay-2211" transform="translate(340.292642 0.296875)"/>
      <use xlink:href="#DejaVuSans-Oblique-69" transform="translate(377.292642 -98.798438) scale(0.7)"/>
      <use xlink:href="#DejaVuSans-2016" transform="translate(431.058267 0.296875)"/>
      <use xlink:href="#DejaVuSans-Oblique-3b4" transform="translate(481.058267 0.296875)"/>
      <use xlink:href="#DejaVuSans-Oblique-69" transform="translate(542.239907 -16.109375) scale(0.7)"/>
      <use xlink:href="#DejaVuSans-2016" transform="translate(564.422524 0.296875)"/>
     </g>
    </g>
   </g>
   <g id="line2d_84">
    <path d="M 678.761832 29.108914 
L 705.866387 52.966875 
L 732.970942 58.608798 
L 760.075498 80.667234 
L 787.180053 91.893585 
L 814.284608 97.047283 
L 841.389163 113.342058 
L 868.493718 127.186642 
" clip-path="url(#p770e2b397c)" style="fill: none; stroke: #3675ad; stroke-width: 1.6; stroke-linecap: square"/>
    <defs>
     <path id="m8385d92c62" d="M 0 2 
C 0.530406 2 1.03916 1.789267 1.414214 1.414214 
C 1.789267 1.03916 2 0.530406 2 0 
C 2 -0.530406 1.789267 -1.03916 1.414214 -1.414214 
C 1.03916 -1.789267 0.530406 -2 0 -2 
C -0.530406 -2 -1.03916 -1.789267 -1.414214 -1.414214 
C -1.789267 -1.03916 -2 -0.530406 -2 0 
C -2 0.530406 -1.789267 1.03916 -1.414214 1.414214 
C -1.03916 1.789267 -0.530406 2 0 2 
z
" style="stroke: #3675ad"/>
    </defs>
    <g clip-path="url(#p770e2b397c)">
     <use xlink:href="#m8385d92c62" x="678.761832" y="29.108914" style="fill: #3675ad; stroke: #3675ad"/>
     <use xlink:href="#m8385d92c62" x="705.866387" y="52.966875" style="fill: #3675ad; stroke: #3675ad"/>
     <use xlink:href="#m8385d92c62" x="732.970942" y="58.608798" style="fill: #3675ad; stroke: #3675ad"/>
     <use xlink:href="#m8385d92c62" x="760.075498" y="80.667234" style="fill: #3675ad; stroke: #3675ad"/>
     <use xlink:href="#m8385d92c62" x="787.180053" y="91.893585" style="fill: #3675ad; stroke: #3675ad"/>
     <use xlink:href="#m8385d92c62" x="814.284608" y="97.047283" style="fill: #3675ad; stroke: #3675ad"/>
     <use xlink:href="#m8385d92c62" x="841.389163" y="113.342058" style="fill: #3675ad; stroke: #3675ad"/>
     <use xlink:href="#m8385d92c62" x="868.493718" y="127.186642" style="fill: #3675ad; stroke: #3675ad"/>
    </g>
   </g>
   <g id="line2d_85">
    <path d="M 678.761832 29.108914 
L 705.866387 75.121606 
L 732.970942 92.735952 
L 760.075498 111.749791 
L 787.180053 108.956139 
L 814.284608 110.000645 
L 841.389163 124.017109 
L 868.493718 130.642799 
" clip-path="url(#p770e2b397c)" style="fill: none; stroke: #d17a35; stroke-width: 1.6; stroke-linecap: square"/>
    <defs>
     <path id="m44ec9d0d7f" d="M 0 2 
C 0.530406 2 1.03916 1.789267 1.414214 1.414214 
C 1.789267 1.03916 2 0.530406 2 0 
C 2 -0.530406 1.789267 -1.03916 1.414214 -1.414214 
C 1.03916 -1.789267 0.530406 -2 0 -2 
C -0.530406 -2 -1.03916 -1.789267 -1.414214 -1.414214 
C -1.789267 -1.03916 -2 -0.530406 -2 0 
C -2 0.530406 -1.789267 1.03916 -1.414214 1.414214 
C -1.03916 1.789267 -0.530406 2 0 2 
z
" style="stroke: #d17a35"/>
    </defs>
    <g clip-path="url(#p770e2b397c)">
     <use xlink:href="#m44ec9d0d7f" x="678.761832" y="29.108914" style="fill: #d17a35; stroke: #d17a35"/>
     <use xlink:href="#m44ec9d0d7f" x="705.866387" y="75.121606" style="fill: #d17a35; stroke: #d17a35"/>
     <use xlink:href="#m44ec9d0d7f" x="732.970942" y="92.735952" style="fill: #d17a35; stroke: #d17a35"/>
     <use xlink:href="#m44ec9d0d7f" x="760.075498" y="111.749791" style="fill: #d17a35; stroke: #d17a35"/>
     <use xlink:href="#m44ec9d0d7f" x="787.180053" y="108.956139" style="fill: #d17a35; stroke: #d17a35"/>
     <use xlink:href="#m44ec9d0d7f" x="814.284608" y="110.000645" style="fill: #d17a35; stroke: #d17a35"/>
     <use xlink:href="#m44ec9d0d7f" x="841.389163" y="124.017109" style="fill: #d17a35; stroke: #d17a35"/>
     <use xlink:href="#m44ec9d0d7f" x="868.493718" y="130.642799" style="fill: #d17a35; stroke: #d17a35"/>
    </g>
   </g>
   <g id="patch_9">
    <path d="M 669.275238 195.318437 
L 669.275238 20.798437 
" style="fill: none; stroke: #000000; stroke-width: 0.8; stroke-linejoin: miter; stroke-linecap: square"/>
   </g>
   <g id="patch_10">
    <path d="M 669.275238 195.318437 
L 877.980313 195.318437 
" style="fill: none; stroke: #000000; stroke-width: 0.8; stroke-linejoin: miter; stroke-linecap: square"/>
   </g>
   <g id="text_40">
    <!-- (c) Saved-write cancellation -->
    <g transform="translate(669.275238 14.798437) scale(0.1 -0.1)">
     <defs>
      <path id="DejaVuSans-Bold-64" d="M 2919 2988 
L 2919 4863 
L 4044 4863 
L 4044 0 
L 2919 0 
L 2919 506 
Q 2688 197 2409 53 
Q 2131 -91 1766 -91 
Q 1119 -91 703 423 
Q 288 938 288 1747 
Q 288 2556 703 3070 
Q 1119 3584 1766 3584 
Q 2128 3584 2408 3439 
Q 2688 3294 2919 2988 
z
M 2181 722 
Q 2541 722 2730 984 
Q 2919 1247 2919 1747 
Q 2919 2247 2730 2509 
Q 2541 2772 2181 2772 
Q 1825 2772 1636 2509 
Q 1447 2247 1447 1747 
Q 1447 1247 1636 984 
Q 1825 722 2181 722 
z
" transform="scale(0.015625)"/>
      <path id="DejaVuSans-Bold-2d" d="M 347 2297 
L 2309 2297 
L 2309 1388 
L 347 1388 
L 347 2297 
z
" transform="scale(0.015625)"/>
      <path id="DejaVuSans-Bold-77" d="M 225 3500 
L 1313 3500 
L 1900 1088 
L 2491 3500 
L 3425 3500 
L 4013 1113 
L 4603 3500 
L 5691 3500 
L 4769 0 
L 3547 0 
L 2956 2406 
L 2369 0 
L 1147 0 
L 225 3500 
z
" transform="scale(0.015625)"/>
     </defs>
     <use xlink:href="#DejaVuSans-Bold-28"/>
     <use xlink:href="#DejaVuSans-Bold-63" transform="translate(45.703125 0)"/>
     <use xlink:href="#DejaVuSans-Bold-29" transform="translate(104.980469 0)"/>
     <use xlink:href="#DejaVuSans-Bold-20" transform="translate(150.683594 0)"/>
     <use xlink:href="#DejaVuSans-Bold-53" transform="translate(185.498047 0)"/>
     <use xlink:href="#DejaVuSans-Bold-61" transform="translate(257.519531 0)"/>
     <use xlink:href="#DejaVuSans-Bold-76" transform="translate(325 0)"/>
     <use xlink:href="#DejaVuSans-Bold-65" transform="translate(390.185547 0)"/>
     <use xlink:href="#DejaVuSans-Bold-64" transform="translate(458.007812 0)"/>
     <use xlink:href="#DejaVuSans-Bold-2d" transform="translate(529.589844 0)"/>
     <use xlink:href="#DejaVuSans-Bold-77" transform="translate(571.09375 0)"/>
     <use xlink:href="#DejaVuSans-Bold-72" transform="translate(663.476562 0)"/>
     <use xlink:href="#DejaVuSans-Bold-69" transform="translate(712.792969 0)"/>
     <use xlink:href="#DejaVuSans-Bold-74" transform="translate(747.070312 0)"/>
     <use xlink:href="#DejaVuSans-Bold-65" transform="translate(794.873047 0)"/>
     <use xlink:href="#DejaVuSans-Bold-20" transform="translate(862.695312 0)"/>
     <use xlink:href="#DejaVuSans-Bold-63" transform="translate(897.509766 0)"/>
     <use xlink:href="#DejaVuSans-Bold-61" transform="translate(956.787109 0)"/>
     <use xlink:href="#DejaVuSans-Bold-6e" transform="translate(1024.267578 0)"/>
     <use xlink:href="#DejaVuSans-Bold-63" transform="translate(1095.458984 0)"/>
     <use xlink:href="#DejaVuSans-Bold-65" transform="translate(1154.736328 0)"/>
     <use xlink:href="#DejaVuSans-Bold-6c" transform="translate(1222.558594 0)"/>
     <use xlink:href="#DejaVuSans-Bold-6c" transform="translate(1256.835938 0)"/>
     <use xlink:href="#DejaVuSans-Bold-61" transform="translate(1291.113281 0)"/>
     <use xlink:href="#DejaVuSans-Bold-74" transform="translate(1358.59375 0)"/>
     <use xlink:href="#DejaVuSans-Bold-69" transform="translate(1406.396484 0)"/>
     <use xlink:href="#DejaVuSans-Bold-6f" transform="translate(1440.673828 0)"/>
     <use xlink:href="#DejaVuSans-Bold-6e" transform="translate(1509.375 0)"/>
    </g>
   </g>
   <g id="legend_3">
    <g id="line2d_86">
     <path d="M 808.565313 31.277187 
L 816.565313 31.277187 
L 824.565313 31.277187 
" style="fill: none; stroke: #3675ad; stroke-width: 1.6; stroke-linecap: square"/>
     <g>
      <use xlink:href="#m8385d92c62" x="816.565313" y="31.277187" style="fill: #3675ad; stroke: #3675ad"/>
     </g>
    </g>
    <g id="text_41">
     <!-- Uniform A -->
     <g transform="translate(830.965313 34.077187) scale(0.08 -0.08)">
      <use xlink:href="#DejaVuSans-55"/>
      <use xlink:href="#DejaVuSans-6e" transform="translate(73.193359 0)"/>
      <use xlink:href="#DejaVuSans-69" transform="translate(136.572266 0)"/>
      <use xlink:href="#DejaVuSans-66" transform="translate(164.355469 0)"/>
      <use xlink:href="#DejaVuSans-6f" transform="translate(199.560547 0)"/>
      <use xlink:href="#DejaVuSans-72" transform="translate(260.742188 0)"/>
      <use xlink:href="#DejaVuSans-6d" transform="translate(300.105469 0)"/>
      <use xlink:href="#DejaVuSans-20" transform="translate(397.517578 0)"/>
      <use xlink:href="#DejaVuSans-41" transform="translate(429.304688 0)"/>
     </g>
    </g>
    <g id="line2d_87">
     <path d="M 808.565313 43.019687 
L 816.565313 43.019687 
L 824.565313 43.019687 
" style="fill: none; stroke: #d17a35; stroke-width: 1.6; stroke-linecap: square"/>
     <g>
      <use xlink:href="#m44ec9d0d7f" x="816.565313" y="43.019687" style="fill: #d17a35; stroke: #d17a35"/>
     </g>
    </g>
    <g id="text_42">
     <!-- Routed R -->
     <g transform="translate(830.965313 45.819687) scale(0.08 -0.08)">
      <use xlink:href="#DejaVuSans-52"/>
      <use xlink:href="#DejaVuSans-6f" transform="translate(64.982422 0)"/>
      <use xlink:href="#DejaVuSans-75" transform="translate(126.164062 0)"/>
      <use xlink:href="#DejaVuSans-74" transform="translate(189.542969 0)"/>
      <use xlink:href="#DejaVuSans-65" transform="translate(228.751953 0)"/>
      <use xlink:href="#DejaVuSans-64" transform="translate(290.275391 0)"/>
      <use xlink:href="#DejaVuSans-20" transform="translate(353.751953 0)"/>
      <use xlink:href="#DejaVuSans-52" transform="translate(385.539062 0)"/>
     </g>
    </g>
   </g>
  </g>
 </g>
 <defs>
  <clipPath id="p60b6b93d98">
   <rect x="42.620313" y="20.798437" width="240.010836" height="174.52"/>
  </clipPath>
  <clipPath id="pc17b26444b">
   <rect x="350.730148" y="20.798437" width="250.44609" height="174.52"/>
  </clipPath>
  <clipPath id="p770e2b397c">
   <rect x="669.275238" y="20.798437" width="208.705075" height="174.52"/>
  </clipPath>
 </defs>
</svg>
